STARTFONT 2.1
FONT -FontForge-Frutiger LT 55 Roman-Book-R-Normal--48-460-75-75-P-259-ISO8859-1
SIZE 46 75 75
FONTBOUNDINGBOX 56 57 -8 -12
COMMENT "Generated by fontforge, http://fontforge.sourceforge.net"
COMMENT "Part of the digitally encoded machine readable outline data for producing the Typefaces provided is copyrighted (c) 1988, 1990, 1994, 2001, 2002, 2003, Linotype Library GmbH, www.linotype.com. All rights reserved. This software is the property of Linotype Library GmbH, and may not be reproduced, used, displayed, modified, disclosed or transferred Library GmbH. Copyright (c) 1988, 1990, 1994, 2001, 2002, 2003, Adobe Systems Incorporated. All rights reserved."
STARTPROPERTIES 40
FOUNDRY "FontForge"
FAMILY_NAME "Frutiger LT 55 Roman"
WEIGHT_NAME "Book"
SLANT "R"
SETWIDTH_NAME "Normal"
ADD_STYLE_NAME ""
PIXEL_SIZE 48
POINT_SIZE 460
RESOLUTION_X 75
RESOLUTION_Y 75
SPACING "P"
AVERAGE_WIDTH 259
CHARSET_REGISTRY "ISO8859"
CHARSET_ENCODING "1"
FONTNAME_REGISTRY ""
CHARSET_COLLECTIONS "ISOLatin1Encoding"
FONT_NAME "FrutigerLT-Roman"
FACE_NAME "Frutiger LT 55 Roman"
COPYRIGHT "Part of the digitally encoded machine readable outline data for producing the Typefaces provided is copyrighted (c) 1988, 1990, 1994, 2001, 2002, 2003, Linotype Library GmbH, www.linotype.com. All rights reserved. This software is the property of Linotype Library GmbH, and may not be reproduced, used, displayed, modified, disclosed or transferred Library GmbH. Copyright (c) 1988, 1990, 1994, 2001, 2002, 2003, Adobe Systems Incorporated. All rights reserved."
FONT_VERSION "6.04"
FONT_ASCENT 38
FONT_DESCENT 10
UNDERLINE_POSITION -6
UNDERLINE_THICKNESS 3
X_HEIGHT 24
CAP_HEIGHT 33
RAW_ASCENT 800
RAW_DESCENT 200
NORM_SPACE 13
RELATIVE_WEIGHT 40
RELATIVE_SETWIDTH 50
SUPERSCRIPT_X 0
SUPERSCRIPT_Y 13
SUPERSCRIPT_SIZE 9
SUBSCRIPT_X 0
SUBSCRIPT_Y 13
SUBSCRIPT_SIZE 9
FIGURE_WIDTH 27
AVG_LOWERCASE_WIDTH 256
AVG_UPPERCASE_WIDTH 310
ENDPROPERTIES
CHARS 232
STARTCHAR space
ENCODING 32
SWIDTH 278 0
DWIDTH 13 0
BBX 1 1 0 0
BITMAP
00
ENDCHAR
STARTCHAR exclam
ENCODING 33
SWIDTH 389 0
DWIDTH 19 0
BBX 5 34 7 0
BITMAP
F8
F8
F8
F8
F8
F8
F8
F8
F8
F8
F8
F8
F8
F8
F8
F8
F8
F8
F8
78
78
78
78
78
00
00
00
00
00
F8
F8
F8
F8
F8
ENDCHAR
STARTCHAR quotedbl
ENCODING 34
SWIDTH 556 0
DWIDTH 27 0
BBX 11 12 8 22
BITMAP
F1E0
F1E0
F1E0
F1E0
F1E0
F1E0
F1E0
F1E0
F1E0
F1E0
F1E0
F1E0
ENDCHAR
STARTCHAR numbersign
ENCODING 35
SWIDTH 556 0
DWIDTH 27 0
BBX 24 34 2 0
BITMAP
00E078
01E070
01E070
01E070
01E0F0
01E0F0
01C0F0
01C0F0
03C0E0
03C0E0
7FFFFF
7FFFFF
7FFFFF
7FFFFF
0381E0
0381E0
0781C0
0781C0
0783C0
0783C0
FFFFFC
FFFFFC
FFFFFC
FFFFFC
0F0380
0F0780
0F0780
0F0780
0E0780
0E0780
1E0700
1E0700
1E0F00
1E0F00
ENDCHAR
STARTCHAR dollar
ENCODING 36
SWIDTH 556 0
DWIDTH 27 0
BBX 19 44 4 -5
BITMAP
00E000
00E000
00E000
00E000
00E000
01FE00
0FFFC0
1FFF80
3FFF80
7FE380
FCE080
F8E000
F8E000
F8E000
F8E000
F8E000
FCE000
FEE000
7FE000
3FE000
1FF800
0FFC00
03FF00
00FF80
00FFC0
00EFC0
00E7E0
00E3E0
00E3E0
00E3E0
00E3E0
00E3E0
00E7E0
80EFC0
E0FFC0
FFFF80
FFFF00
FFFE00
3FF800
00E000
00E000
00E000
00E000
00E000
ENDCHAR
STARTCHAR percent
ENCODING 37
SWIDTH 1000 0
DWIDTH 48 0
BBX 37 36 5 -1
BITMAP
0000001E00
0FC0001C00
3FE0003C00
3FF0003800
7CF8007800
7878007000
F03C00F000
F03C01E000
F03C01C000
F03C03C000
F03C038000
F03C078000
F03C070000
F03C0E0000
F07C1E0000
78781C0000
7CF83C1F80
3FF0387FC0
1FE0787FE0
0FC070F9F0
0000E0F0F0
0001E1E078
0001C1E078
0003C1E078
000381E078
000781E078
000F01E078
000E01E078
001E01E078
001C01E0F8
003C00F0F0
003800F9F0
0070007FE0
00F0003FC0
00E0001F80
01E0000000
ENDCHAR
STARTCHAR ampersand
ENCODING 38
SWIDTH 722 0
DWIDTH 35 0
BBX 29 34 4 0
BITMAP
007F0000
01FFC000
03FFE000
07FFF000
07C1F800
0F80F800
0F80F800
0F807800
0F80F800
0F80F800
0F81F000
07C3F000
07E7E000
03FFC000
01FF8000
01FE0000
07FC01E0
1FFE03E0
3FBF03E0
7F1F83E0
7E0FC3C0
FC07E3C0
F803F7C0
F801F780
F801FF80
F800FF00
F8007F00
FC003F00
7E007F80
7F01FFC0
3FFFF7E0
1FFFE7E0
0FFFC3F0
01FE0008
ENDCHAR
STARTCHAR quotesingle
ENCODING 39
SWIDTH 278 0
DWIDTH 13 0
BBX 4 12 5 22
BITMAP
F0
F0
F0
F0
F0
F0
F0
F0
F0
F0
F0
F0
ENDCHAR
STARTCHAR parenleft
ENCODING 40
SWIDTH 333 0
DWIDTH 16 0
BBX 12 43 3 -7
BITMAP
00F0
01E0
03E0
03C0
07C0
0780
0F80
0F00
1F00
1F00
3E00
3E00
7C00
7C00
7C00
7C00
F800
F800
F800
F800
F800
F800
F800
F800
F800
F800
F800
7C00
7C00
7C00
7C00
3E00
3E00
1E00
1F00
1F00
0F80
0F80
07C0
03C0
03E0
01E0
00F0
ENDCHAR
STARTCHAR parenright
ENCODING 41
SWIDTH 333 0
DWIDTH 16 0
BBX 12 43 1 -7
BITMAP
F000
7800
7C00
3C00
3E00
1E00
1F00
0F00
0F80
0F80
07C0
07C0
03E0
03E0
03E0
03E0
01F0
01F0
01F0
01F0
01F0
01F0
01F0
01F0
01F0
01F0
03F0
03E0
03E0
03E0
07E0
07C0
07C0
0F80
0F80
0F00
1F00
1E00
3E00
3C00
7C00
7800
F000
ENDCHAR
STARTCHAR asterisk
ENCODING 42
SWIDTH 556 0
DWIDTH 27 0
BBX 21 19 3 15
BITMAP
00F800
00F800
00F800
007800
007800
607030
7C71F0
FF77F8
FFFFF8
1FFFC0
00F800
01FC00
03DE00
07DF00
078F00
0F0F80
1F07C0
0E0380
020200
ENDCHAR
STARTCHAR plus
ENCODING 43
SWIDTH 600 0
DWIDTH 29 0
BBX 24 24 2 0
BITMAP
003C00
003C00
003C00
003C00
003C00
003C00
003C00
003C00
003C00
003C00
FFFFFF
FFFFFF
FFFFFF
FFFFFF
003C00
003C00
003C00
003C00
003C00
003C00
003C00
003C00
003C00
003C00
ENDCHAR
STARTCHAR comma
ENCODING 44
SWIDTH 278 0
DWIDTH 13 0
BBX 8 12 1 -7
BITMAP
1F
1F
3F
3E
3E
3E
7C
7C
78
78
F8
F0
ENDCHAR
STARTCHAR hyphen
ENCODING 45
SWIDTH 333 0
DWIDTH 16 0
BBX 12 4 2 11
BITMAP
FFF0
FFF0
FFF0
FFF0
ENDCHAR
STARTCHAR period
ENCODING 46
SWIDTH 278 0
DWIDTH 13 0
BBX 5 5 4 0
BITMAP
F8
F8
F8
F8
F8
ENDCHAR
STARTCHAR slash
ENCODING 47
SWIDTH 278 0
DWIDTH 13 0
BBX 16 34 -1 0
BITMAP
001F
001E
001E
003C
003C
003C
0078
0078
0078
00F0
00F0
00F0
01E0
01E0
01E0
03C0
03C0
03C0
0780
0780
0780
0F00
0F00
0F00
1E00
1E00
1E00
3C00
3C00
3C00
7800
7800
F800
F000
ENDCHAR
STARTCHAR zero
ENCODING 48
SWIDTH 556 0
DWIDTH 27 0
BBX 23 34 2 0
BITMAP
00FE00
03FF80
07FFC0
0FFFE0
1F83F0
3F01F0
3E01F8
7E00F8
7C00FC
7C007C
7C007C
F8007C
F8007C
F8007C
F8003E
F8003E
F8003E
F8003E
F8003E
F8003E
F8007C
F8007C
F8007C
7C007C
7C007C
7C00FC
7E00F8
3E00F8
3F01F0
1F83F0
0FFFE0
07FFC0
03FF80
00FE00
ENDCHAR
STARTCHAR one
ENCODING 49
SWIDTH 556 0
DWIDTH 27 0
BBX 13 34 5 0
BITMAP
00F8
01F8
07F8
0FF8
1FF8
3FF8
7EF8
FCF8
38F8
30F8
00F8
00F8
00F8
00F8
00F8
00F8
00F8
00F8
00F8
00F8
00F8
00F8
00F8
00F8
00F8
00F8
00F8
00F8
00F8
00F8
00F8
00F8
00F8
00F8
ENDCHAR
STARTCHAR two
ENCODING 50
SWIDTH 556 0
DWIDTH 27 0
BBX 21 34 2 0
BITMAP
03FC00
1FFF00
7FFFC0
3FFFE0
3C0FF0
2003F0
0001F8
0000F8
0000F8
0000F8
0000F8
0000F8
0001F8
0001F0
0003F0
0003E0
0007C0
000FC0
001F80
003F00
007E00
00FC00
01F800
03F000
07E000
0FC000
1F8000
3F0000
7E0000
FC0000
FFFFF8
FFFFF8
FFFFF8
FFFFF8
ENDCHAR
STARTCHAR three
ENCODING 51
SWIDTH 556 0
DWIDTH 27 0
BBX 21 34 2 0
BITMAP
07FC00
7FFF00
7FFFC0
3FFFE0
380FF0
4003F0
0001F0
0001F8
0000F8
0000F8
0001F8
0001F0
0003F0
000FE0
07FFC0
07FF00
07FC00
07FF00
007FC0
0007E0
0001F0
0001F0
0000F8
0000F8
0000F8
0000F8
0000F8
0001F8
8003F0
F00FF0
FFFFE0
FFFFC0
FFFF00
1FF800
ENDCHAR
STARTCHAR four
ENCODING 52
SWIDTH 556 0
DWIDTH 27 0
BBX 25 34 1 0
BITMAP
0003F800
0007F800
000FF800
000FF800
001FF800
001EF800
003CF800
007CF800
0078F800
00F8F800
01F0F800
01F0F800
03E0F800
03C0F800
07C0F800
0F80F800
0F80F800
1F00F800
1E00F800
3E00F800
7C00F800
7C00F800
FFFFFF80
FFFFFF80
FFFFFF80
FFFFFF80
0000F800
0000F800
0000F800
0000F800
0000F800
0000F800
0000F800
0000F800
ENDCHAR
STARTCHAR five
ENCODING 53
SWIDTH 556 0
DWIDTH 27 0
BBX 20 34 4 0
BITMAP
7FFFE0
7FFFE0
7FFFE0
7FFFE0
780000
780000
780000
780000
780000
780000
780000
780000
FFF800
FFFE00
FFFF00
FFFF80
E03FC0
800FE0
0007E0
0003F0
0001F0
0001F0
0001F0
0001F0
0001F0
0001F0
0003E0
0007E0
800FC0
E03FC0
FFFF80
FFFF00
FFFC00
3FE000
ENDCHAR
STARTCHAR six
ENCODING 54
SWIDTH 556 0
DWIDTH 27 0
BBX 22 34 3 0
BITMAP
003FC0
01FFF0
03FFF0
07FFF0
0FE030
1F8000
3F0000
3E0000
7E0000
7C0000
7C0000
7C0000
F80000
F87F00
F9FFC0
FBFFE0
FFFFF0
FF83F8
FE01F8
FE00F8
FC00FC
FC007C
FC007C
FC007C
7C007C
7C007C
7C00FC
7E00F8
3F01F8
3F83F0
1FFFE0
0FFFC0
07FF80
00FE00
ENDCHAR
STARTCHAR seven
ENCODING 55
SWIDTH 556 0
DWIDTH 27 0
BBX 22 34 2 0
BITMAP
FFFFFC
FFFFFC
FFFFFC
FFFFFC
000078
0000F8
0000F8
0001F0
0001F0
0003E0
0003E0
0003E0
0007C0
0007C0
000F80
000F80
001F80
001F00
001F00
003E00
003E00
007C00
007C00
00FC00
00F800
00F800
01F000
01F000
03F000
03E000
07E000
07C000
07C000
0FC000
ENDCHAR
STARTCHAR eight
ENCODING 56
SWIDTH 556 0
DWIDTH 27 0
BBX 23 34 2 0
BITMAP
00FF00
07FFC0
1FFFE0
3FFFF0
3F83F8
7E00FC
7C007C
7C007C
7C007C
7C007C
7C00F8
3E00F8
3F81F0
1FE3E0
0FFFC0
03FF80
03FFC0
0FFFE0
1FCFF0
3F03F8
7E00FC
7C007C
F8003E
F8003E
F8003E
F8003E
F8003E
FC007E
7E00FC
7F81FC
3FFFF8
1FFFF0
07FFC0
00FF00
ENDCHAR
STARTCHAR nine
ENCODING 57
SWIDTH 556 0
DWIDTH 27 0
BBX 22 34 2 0
BITMAP
01FC00
07FF80
0FFFC0
1FFFE0
3F07F0
7E03F0
7C01F8
FC00F8
F800F8
F800F8
F800FC
F800FC
F800FC
FC00FC
7C01FC
7E01FC
7F07FC
3FFFFC
1FFF7C
0FFE7C
03F87C
00007C
0000F8
0000F8
0000F8
0001F8
0001F0
0003F0
0007E0
301FC0
3FFF80
3FFF00
3FFE00
1FF000
ENDCHAR
STARTCHAR colon
ENCODING 58
SWIDTH 278 0
DWIDTH 13 0
BBX 5 25 4 0
BITMAP
F8
F8
F8
F8
F8
00
00
00
00
00
00
00
00
00
00
00
00
00
00
00
F8
F8
F8
F8
F8
ENDCHAR
STARTCHAR semicolon
ENCODING 59
SWIDTH 278 0
DWIDTH 13 0
BBX 8 31 1 -6
BITMAP
1F
1F
1F
1F
1F
00
00
00
00
00
00
00
00
00
00
00
00
00
00
1F
1F
3F
3E
3E
3C
7C
7C
78
78
F8
F0
ENDCHAR
STARTCHAR less
ENCODING 60
SWIDTH 600 0
DWIDTH 29 0
BBX 24 25 2 0
BITMAP
000001
000007
00001F
00007F
0001FF
000FFC
003FF0
00FF80
03FE00
1FF800
7FE000
FF0000
FC0000
FE0000
FF8000
3FE000
0FFC00
03FF00
007FC0
001FF0
0007FE
0001FF
00003F
00000F
000003
ENDCHAR
STARTCHAR equal
ENCODING 61
SWIDTH 600 0
DWIDTH 29 0
BBX 25 14 2 5
BITMAP
FFFFFF80
FFFFFF80
FFFFFF80
FFFFFF80
00000000
00000000
00000000
00000000
00000000
00000000
FFFFFF80
FFFFFF80
FFFFFF80
FFFFFF80
ENDCHAR
STARTCHAR greater
ENCODING 62
SWIDTH 600 0
DWIDTH 29 0
BBX 24 25 3 0
BITMAP
800000
E00000
F80000
FE0000
FF8000
3FF000
0FFC00
01FF00
007FC0
001FF8
0007FE
0000FF
00003F
00007F
0001FF
0007FC
003FF0
00FFC0
03FE00
0FF800
7FE000
FF8000
FC0000
F00000
C00000
ENDCHAR
STARTCHAR question
ENCODING 63
SWIDTH 500 0
DWIDTH 24 0
BBX 19 34 3 0
BITMAP
0FF000
FFFC00
FFFF00
FFFF80
F83F80
C00FC0
0007C0
0007C0
0003E0
0007E0
0007C0
0007C0
0007C0
000F80
001F80
003F00
007E00
007C00
00F800
01F000
01F000
01E000
03E000
03E000
03E000
000000
000000
000000
000000
03E000
03E000
03E000
03E000
03E000
ENDCHAR
STARTCHAR at
ENCODING 64
SWIDTH 800 0
DWIDTH 38 0
BBX 34 34 2 0
BITMAP
0007FC0000
003FFF8000
00FFFFE000
01FF1FF000
07F001F800
0FC0007C00
1F80001E00
1F00000F00
3E03F00F00
3C0FFDE780
781FFFE780
783FFFC380
787E0FC3C0
F07C07C3C0
F0F807C3C0
F0F00783C0
F1F0078380
F1E0078380
F1E0070780
F1E00F0700
F1E00F0F00
F1F01F0E00
78F87F1E00
78FFFFFC00
3C7FFFF000
3C3FCFE000
1E0F078000
1F00001F00
0FC0003C00
07F000FC00
03FF0FF000
00FFFFE000
003FFF8000
0007FC0000
ENDCHAR
STARTCHAR A
ENCODING 65
SWIDTH 722 0
DWIDTH 35 0
BBX 33 34 1 0
BITMAP
0003E00000
0007F00000
0007F00000
0007F00000
000FF80000
000F780000
001F7C0000
001E3C0000
003E3E0000
003C3E0000
003C1E0000
007C1F0000
00780F0000
00F80F8000
00F00F8000
01F0078000
01F007C000
01E003C000
03E003E000
03C003E000
07C001F000
07FFFFF000
07FFFFF000
0FFFFFF800
0FFFFFF800
1F00007C00
1F00007C00
3E00003C00
3E00003E00
3C00003E00
7C00001F00
7C00001F00
F800000F80
F800000F80
ENDCHAR
STARTCHAR B
ENCODING 66
SWIDTH 611 0
DWIDTH 29 0
BBX 22 34 4 0
BITMAP
FFFC00
FFFF80
FFFFC0
FFFFE0
F807F0
F801F0
F801F8
F800F8
F800F8
F800F8
F800F8
F800F8
F801F0
F803F0
F80FE0
FFFFC0
FFFF00
FFFF00
FFFFC0
F807E0
F801F0
F800F8
F800F8
F800F8
F8007C
F8007C
F800FC
F800F8
F801F8
F807F8
FFFFF0
FFFFE0
FFFF80
FFFC00
ENDCHAR
STARTCHAR C
ENCODING 67
SWIDTH 611 0
DWIDTH 29 0
BBX 25 34 3 0
BITMAP
0007FE00
003FFF80
00FFFF80
03FFFF80
07FE0F80
0FF00080
1FC00000
1F800000
3F000000
7E000000
7E000000
7C000000
FC000000
F8000000
F8000000
F8000000
F8000000
F8000000
F8000000
F8000000
F8000000
FC000000
7C000000
7E000000
7E000000
3F000000
1F800000
1FC00000
0FF00080
07FE0780
03FFFF80
00FFFF80
003FFF80
0007FE00
ENDCHAR
STARTCHAR D
ENCODING 68
SWIDTH 722 0
DWIDTH 35 0
BBX 28 34 4 0
BITMAP
FFFE0000
FFFFC000
FFFFF000
FFFFF800
F807FE00
F800FF00
F8003F00
F8001F80
F8000FC0
F80007C0
F80007E0
F80003E0
F80003E0
F80003E0
F80003F0
F80001F0
F80001F0
F80001F0
F80001F0
F80003F0
F80003E0
F80003E0
F80003E0
F80007E0
F80007C0
F8000FC0
F8000F80
F8003F80
F8007F00
F807FE00
FFFFFC00
FFFFF000
FFFFC000
FFFE0000
ENDCHAR
STARTCHAR E
ENCODING 69
SWIDTH 556 0
DWIDTH 27 0
BBX 19 34 5 0
BITMAP
FFFFE0
FFFFE0
FFFFE0
FFFFE0
F80000
F80000
F80000
F80000
F80000
F80000
F80000
F80000
F80000
F80000
FFFFC0
FFFFC0
FFFFC0
FFFFC0
F80000
F80000
F80000
F80000
F80000
F80000
F80000
F80000
F80000
F80000
F80000
F80000
FFFFE0
FFFFE0
FFFFE0
FFFFE0
ENDCHAR
STARTCHAR F
ENCODING 70
SWIDTH 500 0
DWIDTH 24 0
BBX 18 34 4 0
BITMAP
FFFFC0
FFFFC0
FFFFC0
FFFFC0
F80000
F80000
F80000
F80000
F80000
F80000
F80000
F80000
F80000
F80000
FFFF80
FFFF80
FFFF80
FFFF80
F80000
F80000
F80000
F80000
F80000
F80000
F80000
F80000
F80000
F80000
F80000
F80000
F80000
F80000
F80000
F80000
ENDCHAR
STARTCHAR G
ENCODING 71
SWIDTH 722 0
DWIDTH 35 0
BBX 28 34 3 0
BITMAP
0007FF00
003FFFE0
00FFFFF0
03FFFFF0
07FE03E0
0FF00060
1FC00000
1F800000
3F000000
7E000000
7E000000
7C000000
FC000000
F8000000
F8000000
F800FFF0
F800FFF0
F800FFF0
F800FFF0
F80001F0
F80001F0
FC0001F0
7C0001F0
7C0001F0
7E0001F0
3F0001F0
3F8001F0
1FC001F0
0FF001F0
07FE03F0
03FFFFF0
00FFFFF0
003FFFF0
0007FF00
ENDCHAR
STARTCHAR H
ENCODING 72
SWIDTH 722 0
DWIDTH 35 0
BBX 26 34 5 0
BITMAP
F80007C0
F80007C0
F80007C0
F80007C0
F80007C0
F80007C0
F80007C0
F80007C0
F80007C0
F80007C0
F80007C0
F80007C0
F80007C0
F80007C0
FFFFFFC0
FFFFFFC0
FFFFFFC0
FFFFFFC0
F80007C0
F80007C0
F80007C0
F80007C0
F80007C0
F80007C0
F80007C0
F80007C0
F80007C0
F80007C0
F80007C0
F80007C0
F80007C0
F80007C0
F80007C0
F80007C0
ENDCHAR
STARTCHAR I
ENCODING 73
SWIDTH 278 0
DWIDTH 13 0
BBX 5 34 4 0
BITMAP
F8
F8
F8
F8
F8
F8
F8
F8
F8
F8
F8
F8
F8
F8
F8
F8
F8
F8
F8
F8
F8
F8
F8
F8
F8
F8
F8
F8
F8
F8
F8
F8
F8
F8
ENDCHAR
STARTCHAR J
ENCODING 74
SWIDTH 389 0
DWIDTH 19 0
BBX 14 34 1 0
BITMAP
007C
007C
007C
007C
007C
007C
007C
007C
007C
007C
007C
007C
007C
007C
007C
007C
007C
007C
007C
007C
007C
007C
007C
007C
007C
007C
007C
00FC
01F8
87F8
FFF0
FFF0
FFC0
7F00
ENDCHAR
STARTCHAR K
ENCODING 75
SWIDTH 667 0
DWIDTH 32 0
BBX 27 34 5 0
BITMAP
F8001FC0
F8003F00
F8007E00
F800FC00
F801F800
F803F000
F807E000
F80FC000
F81F8000
F83F0000
F87E0000
F8FC0000
F9F80000
FBF00000
FFF00000
FFE00000
FFC00000
FFE00000
FBF00000
F9F80000
F8FC0000
F87E0000
F83F0000
F83F8000
F81FC000
F80FE000
F807F000
F803F800
F801FC00
F800FE00
F8007E00
F8003F00
F8003F80
F8001FE0
ENDCHAR
STARTCHAR L
ENCODING 76
SWIDTH 500 0
DWIDTH 24 0
BBX 19 34 4 0
BITMAP
F80000
F80000
F80000
F80000
F80000
F80000
F80000
F80000
F80000
F80000
F80000
F80000
F80000
F80000
F80000
F80000
F80000
F80000
F80000
F80000
F80000
F80000
F80000
F80000
F80000
F80000
F80000
F80000
F80000
F80000
FFFFE0
FFFFE0
FFFFE0
FFFFE0
ENDCHAR
STARTCHAR M
ENCODING 77
SWIDTH 944 0
DWIDTH 45 0
BBX 37 34 4 0
BITMAP
FF000007F8
FF80000FF8
FF80000FF8
FF80000FF8
FFC0001FF8
FFC0001FF8
FBC0001EF8
FBE0003EF8
F9E0003CF8
F9F0003CF8
F9F0007CF8
F8F00078F8
F8F800F8F8
F8F800F8F8
F87800F0F8
F87C01F0F8
F83C01F0F8
F83E01E0F8
F83E03E0F8
F81E03C0F8
F81F07C0F8
F81F07C0F8
F80F0780F8
F80F8F80F8
F80F8F80F8
F807CF00F8
F807DF00F8
F803DE00F8
F803FE00F8
F803FE00F8
F801FC00F8
F801FC00F8
F801FC00F8
F800F800F8
ENDCHAR
STARTCHAR N
ENCODING 78
SWIDTH 722 0
DWIDTH 35 0
BBX 26 34 4 0
BITMAP
FE0007C0
FF0007C0
FF0007C0
FF8007C0
FF8007C0
FFC007C0
FFC007C0
FBE007C0
FBE007C0
F9F007C0
F9F007C0
F8F807C0
F8F807C0
F87C07C0
F87C07C0
F83E07C0
F81E07C0
F81F07C0
F80F07C0
F80F87C0
F80787C0
F807C7C0
F803C7C0
F803E7C0
F801E7C0
F801F7C0
F800F7C0
F800FFC0
F8007FC0
F8007FC0
F8003FC0
F8003FC0
F8001FC0
F8001FC0
ENDCHAR
STARTCHAR O
ENCODING 79
SWIDTH 778 0
DWIDTH 37 0
BBX 32 34 3 0
BITMAP
000FF000
007FFE00
01FFFF80
03FFFFE0
07F81FF0
0FE007F0
1F8001F8
3F0000FC
3E00007C
7E00007E
7C00003E
7C00003E
FC00001F
F800001F
F800001F
F800001F
F800001F
F800001F
F800001F
F800001F
F800001F
FC00001F
7C00003E
7C00003E
7E00007E
3E00007C
3F0000FC
1F8001F8
0FE007F8
0FF81FF0
03FFFFE0
01FFFF80
007FFE00
001FF800
ENDCHAR
STARTCHAR P
ENCODING 80
SWIDTH 556 0
DWIDTH 27 0
BBX 21 34 4 0
BITMAP
FFFC00
FFFF00
FFFFC0
FFFFE0
F81FF0
F803F0
F801F8
F800F8
F800F8
F800F8
F800F8
F800F8
F800F8
F801F8
F803F0
F80FF0
FFFFE0
FFFFC0
FFFF00
FFFC00
F80000
F80000
F80000
F80000
F80000
F80000
F80000
F80000
F80000
F80000
F80000
F80000
F80000
F80000
ENDCHAR
STARTCHAR Q
ENCODING 81
SWIDTH 778 0
DWIDTH 37 0
BBX 32 40 3 -6
BITMAP
000FF000
007FFE00
01FFFF80
03FFFFE0
07F81FF0
0FE007F0
1F8001F8
3F0000FC
3E00007C
7E00007E
7C00003E
7C00003E
FC00001F
F800001F
F800001F
F800001F
F800001F
F800001F
F800001F
F800001F
F800001F
FC00001F
7C00003E
7C00003E
7E00007E
3E00007C
3F0000FC
1F8001F8
0FE007F8
0FF81FF0
03FFFFE0
01FFFF80
007FFE00
001FFF00
00001F80
00000FC0
000007E0
000003F0
000001F8
000000FE
ENDCHAR
STARTCHAR R
ENCODING 82
SWIDTH 611 0
DWIDTH 29 0
BBX 24 34 4 0
BITMAP
FFFC00
FFFF80
FFFFC0
FFFFE0
F80FF0
F803F8
F801F8
F800F8
F800F8
F800F8
F800F8
F800F8
F801F8
F803F0
F80FE0
FFFFC0
FFFF80
FFFE00
FFFF00
F83F80
F80F80
F807C0
F807C0
F803E0
F803E0
F801F0
F801F0
F800F8
F800F8
F800FC
F8007C
F8007E
F8003E
F8003F
ENDCHAR
STARTCHAR S
ENCODING 83
SWIDTH 500 0
DWIDTH 24 0
BBX 19 34 3 0
BITMAP
03FE00
0FFFC0
3FFF80
7FFF80
7F0780
FC0080
F80000
F80000
F80000
F80000
F80000
FC0000
FE0000
7F8000
3FE000
1FF800
0FFE00
03FF00
00FF80
003FC0
000FC0
0007E0
0003E0
0003E0
0003E0
0003E0
0003E0
0007E0
800FC0
F87FC0
FFFF80
FFFF00
FFFC00
1FE000
ENDCHAR
STARTCHAR T
ENCODING 84
SWIDTH 556 0
DWIDTH 27 0
BBX 25 34 1 0
BITMAP
FFFFFF80
FFFFFF80
FFFFFF80
FFFFFF80
003E0000
003E0000
003E0000
003E0000
003E0000
003E0000
003E0000
003E0000
003E0000
003E0000
003E0000
003E0000
003E0000
003E0000
003E0000
003E0000
003E0000
003E0000
003E0000
003E0000
003E0000
003E0000
003E0000
003E0000
003E0000
003E0000
003E0000
003E0000
003E0000
003E0000
ENDCHAR
STARTCHAR U
ENCODING 85
SWIDTH 722 0
DWIDTH 35 0
BBX 26 34 4 0
BITMAP
F80007C0
F80007C0
F80007C0
F80007C0
F80007C0
F80007C0
F80007C0
F80007C0
F80007C0
F80007C0
F80007C0
F80007C0
F80007C0
F80007C0
F80007C0
F80007C0
F80007C0
F80007C0
F80007C0
F80007C0
F80007C0
F80007C0
F80007C0
F80007C0
FC000F80
7C000F80
7E001F80
7E001F00
3F003F00
1FE1FE00
0FFFFC00
07FFF800
03FFF000
007F8000
ENDCHAR
STARTCHAR V
ENCODING 86
SWIDTH 667 0
DWIDTH 32 0
BBX 32 34 0 0
BITMAP
FC00001F
7C00003E
7C00003E
3E00003E
3E00007C
3E00007C
1F0000F8
1F0000F8
0F0000F8
0F8001F0
0F8001F0
07C001E0
07C003E0
07C003E0
03E003C0
03E007C0
03E007C0
01F00780
01F00F80
00F00F00
00F81F00
00F81F00
00781E00
007C3E00
007C3E00
003E3C00
003E7C00
001E7800
001F7800
001FF800
000FF000
000FF000
000FF000
0007E000
ENDCHAR
STARTCHAR W
ENCODING 87
SWIDTH 1000 0
DWIDTH 48 0
BBX 48 34 0 0
BITMAP
FC0007F0001F
7C0007F0001F
7C000FF0003F
7E000FF8003E
3E000F78003E
3E000F78003E
3F001F78007C
1F001F7C007C
1F001E7C007C
1F001E3C0078
0F803E3C00F8
0F803E3E00F8
0F803C3E00F0
0F803C1E01F0
07C07C1E01F0
07C07C1F01F0
07C0781F01E0
03E0780F03E0
03E0F80F03E0
03E0F80F83C0
01E0F00F83C0
01F0F00787C0
01F1F0078780
01F1F007C780
00F1E007CF80
00F9E003CF80
00FBE003CF00
007BE003EF00
007FC003FF00
007FC001FE00
003FC001FE00
003FC001FE00
003F8001FC00
003F8000FC00
ENDCHAR
STARTCHAR X
ENCODING 88
SWIDTH 667 0
DWIDTH 32 0
BBX 31 34 1 0
BITMAP
7E0000FC
3F0001F8
3F0001F0
1F8003E0
0FC007E0
07C007C0
07E00F80
03F01F80
01F01F00
01F83E00
00FC7E00
007CFC00
007EF800
003FF000
001FF000
001FE000
000FE000
001FE000
003FF000
003FF800
007CFC00
00FCFC00
00F87E00
01F03F00
03F03F00
03E01F80
07C00FC0
0FC00FC0
1F8007E0
1F0003F0
3F0003F0
7E0001F8
7C0000FC
FC00007E
ENDCHAR
STARTCHAR Y
ENCODING 89
SWIDTH 667 0
DWIDTH 32 0
BBX 31 34 1 0
BITMAP
FC00007E
7E0000FC
3E0000F8
3F0001F8
1F0001F0
0F8003E0
0FC007E0
07C007C0
03E00F80
03F01F80
01F01F00
01F83E00
00FC7E00
007C7C00
007EFC00
003FF800
001FF000
001FF000
000FE000
0007C000
0007C000
0007C000
0007C000
0007C000
0007C000
0007C000
0007C000
0007C000
0007C000
0007C000
0007C000
0007C000
0007C000
0007C000
ENDCHAR
STARTCHAR Z
ENCODING 90
SWIDTH 556 0
DWIDTH 27 0
BBX 23 34 2 0
BITMAP
7FFFFE
7FFFFE
7FFFFE
7FFFFE
00007E
0000FC
0000F8
0001F8
0003F0
0003E0
0007E0
000FC0
000F80
001F80
003F00
003E00
007E00
00FC00
00F800
01F800
03F000
03E000
07E000
0FC000
0F8000
1F0000
3F0000
7E0000
7C0000
FC0000
FFFFFE
FFFFFE
FFFFFE
FFFFFE
ENDCHAR
STARTCHAR bracketleft
ENCODING 91
SWIDTH 333 0
DWIDTH 16 0
BBX 9 43 5 -7
BITMAP
FF80
FF80
FF80
F000
F000
F000
F000
F000
F000
F000
F000
F000
F000
F000
F000
F000
F000
F000
F000
F000
F000
F000
F000
F000
F000
F000
F000
F000
F000
F000
F000
F000
F000
F000
F000
F000
F000
F000
F000
F000
FF80
FF80
FF80
ENDCHAR
STARTCHAR backslash
ENCODING 92
SWIDTH 278 0
DWIDTH 13 0
BBX 16 34 -2 0
BITMAP
F800
7800
7800
3C00
3C00
3C00
1E00
1E00
1E00
0F00
0F00
0F00
0780
0780
0780
03C0
03C0
03C0
01E0
01E0
01E0
00F0
00F0
00F0
0078
0078
0078
003C
003C
003C
001E
001E
001E
000F
ENDCHAR
STARTCHAR bracketright
ENCODING 93
SWIDTH 333 0
DWIDTH 16 0
BBX 9 43 2 -7
BITMAP
FF80
FF80
FF80
0780
0780
0780
0780
0780
0780
0780
0780
0780
0780
0780
0780
0780
0780
0780
0780
0780
0780
0780
0780
0780
0780
0780
0780
0780
0780
0780
0780
0780
0780
0780
0780
0780
0780
0780
0780
0780
FF80
FF80
FF80
ENDCHAR
STARTCHAR asciicircum
ENCODING 94
SWIDTH 600 0
DWIDTH 29 0
BBX 23 19 2 15
BITMAP
003C00
007E00
007E00
00FF00
00FF00
01E780
01E780
03C3C0
03C3C0
0781E0
0781E0
0F01F0
0F00F0
1E00F8
1E0078
3E007C
3C003C
7C003E
F8001E
ENDCHAR
STARTCHAR underscore
ENCODING 95
SWIDTH 500 0
DWIDTH 24 0
BBX 24 2 0 -6
BITMAP
FFFFFF
FFFFFF
ENDCHAR
STARTCHAR grave
ENCODING 96
SWIDTH 278 0
DWIDTH 13 0
BBX 9 7 0 28
BITMAP
F800
7C00
3C00
1E00
0F00
0700
0380
ENDCHAR
STARTCHAR a
ENCODING 97
SWIDTH 556 0
DWIDTH 27 0
BBX 21 25 2 0
BITMAP
01FE00
0FFF80
1FFFE0
1FFFE0
1C03F0
1001F0
0001F8
0000F8
0000F8
0000F8
01FFF8
0FFFF8
3FFFF8
7FE0F8
7E00F8
FC00F8
F800F8
F800F8
F801F8
F803F8
FC07F8
7FFFF8
7FFEF8
1FFCF8
07F0F8
ENDCHAR
STARTCHAR b
ENCODING 98
SWIDTH 611 0
DWIDTH 29 0
BBX 23 36 4 0
BITMAP
F80000
F80000
F80000
F80000
F80000
F80000
F80000
F80000
F80000
F80000
F80000
F87F00
F9FFE0
FBFFF0
FFFFF8
FF81FC
FF00FC
FE007C
FC003E
FC003E
F8003E
F8003E
F8003E
F8003E
F8003E
F8003E
F8003E
FC003E
FC007E
FE007C
FE00FC
FF81F8
FFFFF8
FBFFF0
F9FFE0
F83F80
ENDCHAR
STARTCHAR c
ENCODING 99
SWIDTH 444 0
DWIDTH 21 0
BBX 18 25 2 0
BITMAP
007F80
03FFC0
07FFC0
1FFFC0
1F8040
3F0000
7E0000
7C0000
7C0000
F80000
F80000
F80000
F80000
F80000
F80000
F80000
7C0000
7C0000
7E0000
3F0000
1F8040
0FFFC0
07FFC0
03FFC0
007F80
ENDCHAR
STARTCHAR d
ENCODING 100
SWIDTH 611 0
DWIDTH 29 0
BBX 24 36 2 0
BITMAP
00001F
00001F
00001F
00001F
00001F
00001F
00001F
00001F
00001F
00001F
00001F
01FC1F
07FF9F
0FFFDF
1FFFFF
3F81FF
3E00FF
7E007F
7C003F
7C003F
F8001F
F8001F
F8001F
F8001F
F8001F
F8001F
7C001F
7C003F
7C003F
7E007F
3F00FF
3F81FF
1FFFFF
0FFFDF
07FF1F
01FC1F
ENDCHAR
STARTCHAR e
ENCODING 101
SWIDTH 556 0
DWIDTH 27 0
BBX 22 25 2 0
BITMAP
00FE00
03FFC0
0FFFE0
1FFFF0
3F01F8
3E00F8
7C007C
7C007C
F8007C
F8007C
FFFFFC
FFFFFC
FFFFFC
F80000
F80000
F80000
FC0000
7C0000
7E0000
3F0010
3F8070
1FFFF0
0FFFF0
03FFF0
00FF80
ENDCHAR
STARTCHAR f
ENCODING 102
SWIDTH 389 0
DWIDTH 19 0
BBX 18 36 1 0
BITMAP
001FC0
007FC0
00FFC0
01FFC0
01F000
03E000
03E000
03E000
03E000
03E000
03E000
FFFF80
FFFF80
FFFF80
FFFF80
03E000
03E000
03E000
03E000
03E000
03E000
03E000
03E000
03E000
03E000
03E000
03E000
03E000
03E000
03E000
03E000
03E000
03E000
03E000
03E000
03E000
ENDCHAR
STARTCHAR g
ENCODING 103
SWIDTH 611 0
DWIDTH 29 0
BBX 24 35 2 -10
BITMAP
00FE1F
03FF9F
0FFFDF
1FFFFF
1F81FF
3F00FF
3E007F
7C003F
7C003F
7C001F
F8001F
F8001F
F8001F
F8001F
F8001F
FC001F
7C003F
7C003F
7E007F
3F00FF
3F81FF
1FFFFF
0FFFDF
07FF1F
01FC1F
00001F
00001F
00003E
00003E
20007E
3C01FC
3FFFF8
3FFFF0
3FFFE0
03FF00
ENDCHAR
STARTCHAR h
ENCODING 104
SWIDTH 611 0
DWIDTH 29 0
BBX 22 36 4 0
BITMAP
F80000
F80000
F80000
F80000
F80000
F80000
F80000
F80000
F80000
F80000
F80000
F83F00
F8FFC0
FBFFF0
FFFFF0
FF81F8
FE00F8
FE00FC
FC00FC
FC007C
F8007C
F8007C
F8007C
F8007C
F8007C
F8007C
F8007C
F8007C
F8007C
F8007C
F8007C
F8007C
F8007C
F8007C
F8007C
F8007C
ENDCHAR
STARTCHAR i
ENCODING 105
SWIDTH 278 0
DWIDTH 13 0
BBX 5 35 4 0
BITMAP
F8
F8
F8
F8
F8
00
00
00
00
00
F8
F8
F8
F8
F8
F8
F8
F8
F8
F8
F8
F8
F8
F8
F8
F8
F8
F8
F8
F8
F8
F8
F8
F8
F8
ENDCHAR
STARTCHAR j
ENCODING 106
SWIDTH 278 0
DWIDTH 13 0
BBX 10 45 -1 -10
BITMAP
07C0
07C0
07C0
07C0
07C0
0000
0000
0000
0000
0000
07C0
07C0
07C0
07C0
07C0
07C0
07C0
07C0
07C0
07C0
07C0
07C0
07C0
07C0
07C0
07C0
07C0
07C0
07C0
07C0
07C0
07C0
07C0
07C0
07C0
07C0
07C0
07C0
07C0
0FC0
1F80
FF80
FF00
FE00
FC00
ENDCHAR
STARTCHAR k
ENCODING 107
SWIDTH 556 0
DWIDTH 27 0
BBX 22 36 4 0
BITMAP
F80000
F80000
F80000
F80000
F80000
F80000
F80000
F80000
F80000
F80000
F80000
F803F8
F807E0
F80FC0
F81F80
F83F00
F87E00
F8FC00
F9F800
F9F000
FBF000
FFE000
FFC000
FFE000
FBF000
F9F800
F8FC00
F87E00
F87F00
F83F00
F81F80
F80FC0
F807E0
F807F0
F803F8
F801FC
ENDCHAR
STARTCHAR l
ENCODING 108
SWIDTH 278 0
DWIDTH 13 0
BBX 5 36 4 0
BITMAP
F8
F8
F8
F8
F8
F8
F8
F8
F8
F8
F8
F8
F8
F8
F8
F8
F8
F8
F8
F8
F8
F8
F8
F8
F8
F8
F8
F8
F8
F8
F8
F8
F8
F8
F8
F8
ENDCHAR
STARTCHAR m
ENCODING 109
SWIDTH 889 0
DWIDTH 43 0
BBX 35 25 4 0
BITMAP
F87E00FC00
F9FF83FF00
FBFFC7FF80
FFFFEFFFC0
FF07FE0FC0
FE03FC07E0
FC03F807E0
FC01F803E0
FC01F803E0
F801F003E0
F801F003E0
F801F003E0
F801F003E0
F801F003E0
F801F003E0
F801F003E0
F801F003E0
F801F003E0
F801F003E0
F801F003E0
F801F003E0
F801F003E0
F801F003E0
F801F003E0
F801F003E0
ENDCHAR
STARTCHAR n
ENCODING 110
SWIDTH 611 0
DWIDTH 29 0
BBX 22 25 4 0
BITMAP
F83F00
F8FFC0
FBFFF0
FFFFF0
FF81F8
FE00F8
FE00FC
FC00FC
FC007C
F8007C
F8007C
F8007C
F8007C
F8007C
F8007C
F8007C
F8007C
F8007C
F8007C
F8007C
F8007C
F8007C
F8007C
F8007C
F8007C
ENDCHAR
STARTCHAR o
ENCODING 111
SWIDTH 611 0
DWIDTH 29 0
BBX 25 25 2 0
BITMAP
007F0000
03FFE000
07FFF000
1FFFFC00
1F80FE00
3F007E00
7E003F00
7C001F00
7C001F80
F8000F80
F8000F80
F8000F80
F8000F80
F8000F80
F8000F80
F8000F80
7C001F00
7C001F00
7E003F00
3F007E00
1F80FC00
0FFFF800
07FFF000
03FFE000
007F0000
ENDCHAR
STARTCHAR p
ENCODING 112
SWIDTH 611 0
DWIDTH 29 0
BBX 23 35 4 -10
BITMAP
F83F00
F9FFE0
FBFFF0
FFFFF8
FF81FC
FF00FC
FE007C
FC003E
FC003E
F8003E
F8003E
F8003E
F8003E
F8003E
F8003E
F8003E
FC003E
FC007E
FE007C
FE00FC
FF81F8
FFFFF8
FBFFF0
F9FFE0
F87F80
F80000
F80000
F80000
F80000
F80000
F80000
F80000
F80000
F80000
F80000
ENDCHAR
STARTCHAR q
ENCODING 113
SWIDTH 611 0
DWIDTH 29 0
BBX 24 35 2 -10
BITMAP
01FC1F
07FF1F
0FFFDF
1FFFFF
3F81FF
3E00FF
7E007F
7C003F
7C003F
F8001F
F8001F
F8001F
F8001F
F8001F
F8001F
7C001F
7C003F
7C003F
7E007F
3F00FF
3F81FF
1FFFFF
0FFFDF
07FF9F
01FC1F
00001F
00001F
00001F
00001F
00001F
00001F
00001F
00001F
00001F
00001F
ENDCHAR
STARTCHAR r
ENCODING 114
SWIDTH 389 0
DWIDTH 19 0
BBX 14 25 4 0
BITMAP
F87C
F9FC
FBFC
FFFC
FF80
FF00
FE00
FC00
FC00
FC00
F800
F800
F800
F800
F800
F800
F800
F800
F800
F800
F800
F800
F800
F800
F800
ENDCHAR
STARTCHAR s
ENCODING 115
SWIDTH 389 0
DWIDTH 19 0
BBX 16 25 1 0
BITMAP
07F8
1FFE
3FFC
7FFC
7C04
7C00
F800
FC00
FC00
7F00
7FC0
3FF0
0FF8
07FE
00FE
007F
003F
001F
001F
001F
403E
7FFE
7FFC
7FF8
1FE0
ENDCHAR
STARTCHAR t
ENCODING 116
SWIDTH 389 0
DWIDTH 19 0
BBX 17 32 0 0
BITMAP
006000
03E000
03E000
03E000
03E000
03E000
03E000
FFFF80
FFFF80
FFFF80
FFFF80
03E000
03E000
03E000
03E000
03E000
03E000
03E000
03E000
03E000
03E000
03E000
03E000
03E000
03E000
03E000
03F000
03F000
01FF80
01FF80
00FF80
003F80
ENDCHAR
STARTCHAR u
ENCODING 117
SWIDTH 611 0
DWIDTH 29 0
BBX 22 25 4 0
BITMAP
F8007C
F8007C
F8007C
F8007C
F8007C
F8007C
F8007C
F8007C
F8007C
F8007C
F8007C
F8007C
F8007C
F8007C
F8007C
F8007C
F800FC
F800FC
FC01FC
7C01FC
7E07FC
3FFFFC
3FFF7C
0FFC7C
07F07C
ENDCHAR
STARTCHAR v
ENCODING 118
SWIDTH 500 0
DWIDTH 24 0
BBX 23 25 0 0
BITMAP
F8003E
7C003E
7C007C
7C007C
3E007C
3E00F8
3E00F8
1F00F8
1F00F0
0F01F0
0F81E0
0F81E0
0783E0
07C3C0
07C3C0
03C7C0
03E780
03E780
01EF80
01EF00
01FF00
00FF00
00FE00
00FE00
007E00
ENDCHAR
STARTCHAR w
ENCODING 119
SWIDTH 833 0
DWIDTH 40 0
BBX 39 25 0 0
BITMAP
F8007C003E
7C007E003C
7C00FE007C
7C00FE007C
3C00EF007C
3E01EF00F8
3E01EF00F8
3E01C780F8
1E03C780F0
1F03C781F0
1F03C781F0
0F0383C1E0
0F0783C1E0
0F8783C3E0
078701E3C0
078F01E3C0
07CF01E3C0
03CE00F780
03DE00F780
03DE00F780
01FE00F700
01FC007F00
01FC007F00
01FC007F00
00F8003E00
ENDCHAR
STARTCHAR x
ENCODING 120
SWIDTH 500 0
DWIDTH 24 0
BBX 23 25 0 0
BITMAP
7E007C
3F00F8
1F00F8
1F81F0
0F81E0
07C3E0
07E7C0
03E7C0
01FF80
01FF00
00FF00
007E00
007E00
00FF00
01FF00
01EF80
03EFC0
07C7C0
07C3E0
0F83F0
1F01F0
1F01F8
3E00FC
7C007C
FC007E
ENDCHAR
STARTCHAR y
ENCODING 121
SWIDTH 500 0
DWIDTH 24 0
BBX 23 35 1 -10
BITMAP
F8003E
F8003C
7C007C
7C007C
7C0078
3E00F8
3E00F8
1E00F0
1F01F0
1F01F0
0F01E0
0F83E0
0F83E0
0783C0
07C7C0
07C780
03C780
03EF80
01EF00
01EF00
01FF00
00FE00
00FE00
00FE00
007C00
007C00
007800
00F800
00F800
01F000
03F000
7FE000
7FC000
7F8000
7E0000
ENDCHAR
STARTCHAR z
ENCODING 122
SWIDTH 500 0
DWIDTH 24 0
BBX 20 25 2 0
BITMAP
FFFFE0
FFFFE0
FFFFE0
FFFFE0
0007E0
0007C0
000F80
001F00
003E00
007E00
007C00
00F800
01F000
03E000
07E000
0FC000
0F8000
1F0000
3E0000
7E0000
FC0000
FFFFF0
FFFFF0
FFFFF0
FFFFF0
ENDCHAR
STARTCHAR braceleft
ENCODING 123
SWIDTH 333 0
DWIDTH 16 0
BBX 13 43 2 -7
BITMAP
01F8
03F8
07F8
07C0
0F80
0F00
0F00
0F00
0F00
0F00
0F00
0F00
0F00
0F00
0F00
0F00
0F00
1F00
1F00
3E00
FC00
F000
FC00
FE00
3E00
1F00
0F00
0F00
0F00
0F00
0F00
0F00
0F00
0F00
0F00
0F00
0F00
0F00
0F00
0FC0
07F8
03F8
01F8
ENDCHAR
STARTCHAR bar
ENCODING 124
SWIDTH 222 0
DWIDTH 11 0
BBX 4 48 3 -12
BITMAP
F0
F0
F0
F0
F0
F0
F0
F0
F0
F0
F0
F0
F0
F0
F0
F0
F0
F0
F0
F0
F0
F0
F0
F0
F0
F0
F0
F0
F0
F0
F0
F0
F0
F0
F0
F0
F0
F0
F0
F0
F0
F0
F0
F0
F0
F0
F0
F0
ENDCHAR
STARTCHAR braceright
ENCODING 125
SWIDTH 333 0
DWIDTH 16 0
BBX 13 43 1 -7
BITMAP
FC00
FE00
FF00
1F00
0F80
0780
0780
0780
0780
0780
0780
0780
0780
0780
0780
0780
0780
07C0
07C0
03E0
01F8
0078
01F8
03F8
03C0
07C0
0780
0780
0780
0780
0780
0780
0780
0780
0780
0780
0780
0780
0780
1F80
FF00
FE00
FC00
ENDCHAR
STARTCHAR asciitilde
ENCODING 126
SWIDTH 600 0
DWIDTH 29 0
BBX 22 7 3 9
BITMAP
0F8008
3FE018
7FF83C
FFFFFC
F0FFF8
603FF0
4007E0
ENDCHAR
STARTCHAR Zcaron
ENCODING 142
SWIDTH 556 0
DWIDTH 27 0
BBX 23 43 2 0
BITMAP
0781E0
03C3C0
01E780
01E780
00FF00
007E00
003C00
000000
000000
7FFFFE
7FFFFE
7FFFFE
7FFFFE
00007E
0000FC
0000F8
0001F8
0003F0
0003E0
0007E0
000FC0
000F80
001F80
003F00
003E00
007E00
00FC00
00F800
01F800
03F000
03E000
07E000
0FC000
0F8000
1F0000
3F0000
7E0000
7C0000
FC0000
FFFFFE
FFFFFE
FFFFFE
FFFFFE
ENDCHAR
STARTCHAR zcaron
ENCODING 158
SWIDTH 500 0
DWIDTH 24 0
BBX 20 35 2 0
BITMAP
1E0780
0F0F00
079E00
079E00
03FC00
01F800
00F000
000000
000000
000000
FFFFE0
FFFFE0
FFFFE0
FFFFE0
0007E0
0007C0
000F80
001F00
003E00
007E00
007C00
00F800
01F000
03E000
07E000
0FC000
0F8000
1F0000
3E0000
7E0000
FC0000
FFFFF0
FFFFF0
FFFFF0
FFFFF0
ENDCHAR
STARTCHAR nonbreakingspace
ENCODING 160
SWIDTH 278 0
DWIDTH 13 0
BBX 1 1 0 0
BITMAP
00
ENDCHAR
STARTCHAR exclamdown
ENCODING 161
SWIDTH 389 0
DWIDTH 19 0
BBX 5 34 7 -9
BITMAP
F8
F8
F8
F8
F8
00
00
00
00
00
78
78
78
78
F8
F8
F8
F8
F8
F8
F8
F8
F8
F8
F8
F8
F8
F8
F8
F8
F8
F8
F8
F8
ENDCHAR
STARTCHAR cent
ENCODING 162
SWIDTH 556 0
DWIDTH 27 0
BBX 18 36 4 -6
BITMAP
000180
000380
000380
000300
000700
00FF80
03FFC0
07FFC0
1FFFC0
1F8E40
3F0C00
7E1C00
7C1C00
7C1800
F83800
F83800
F83800
F87000
F87000
F87000
F86000
7CE000
7CE000
7EC000
3FC000
1FC040
0FFFC0
07FFC0
03FFC0
03FF80
030000
070000
070000
070000
0E0000
0E0000
ENDCHAR
STARTCHAR sterling
ENCODING 163
SWIDTH 556 0
DWIDTH 27 0
BBX 21 34 3 0
BITMAP
000FF0
007FF8
00FFF8
01FFF8
03FC38
03F000
07E000
07C000
0FC000
0F8000
0F8000
0F8000
0F8000
0F8000
0F8000
FFFF80
FFFF80
FFFF80
0F8000
0F8000
0F8000
0F8000
0F8000
0F8000
0F8000
0F8000
0F8000
0F8000
0F8000
0F8000
FFFFF8
FFFFF8
FFFFF8
FFFFF8
ENDCHAR
STARTCHAR currency
ENCODING 164
SWIDTH 556 0
DWIDTH 27 0
BBX 24 24 1 5
BITMAP
607E06
F3FFCF
FFFFFF
7FFFFE
3F81FC
3E007C
7C003E
7C003E
F8001F
F8001F
F0000F
F0000F
F0000F
F0000F
F8001F
F8001F
7C003E
7C003E
3E007C
3F81FC
7FFFFE
FFFFFF
F3FFCF
60FE06
ENDCHAR
STARTCHAR yen
ENCODING 165
SWIDTH 556 0
DWIDTH 27 0
BBX 27 34 0 0
BITMAP
FC0007E0
7C0007C0
3E000F80
3E001F80
1F001F00
1F803F00
0F803E00
0FC07E00
07C07C00
07E0F800
03E0F800
01F1F000
01F1F000
00FBE000
00FBE000
007FC000
0FFFFE00
0FFFFE00
0FFFFE00
001F0000
001F0000
001F0000
001F0000
0FFFFE00
0FFFFE00
0FFFFE00
001F0000
001F0000
001F0000
001F0000
001F0000
001F0000
001F0000
001F0000
ENDCHAR
STARTCHAR brokenbar
ENCODING 166
SWIDTH 222 0
DWIDTH 11 0
BBX 4 40 3 -8
BITMAP
F0
F0
F0
F0
F0
F0
F0
F0
F0
F0
F0
F0
F0
F0
F0
F0
F0
00
00
00
00
00
00
F0
F0
F0
F0
F0
F0
F0
F0
F0
F0
F0
F0
F0
F0
F0
F0
F0
ENDCHAR
STARTCHAR section
ENCODING 167
SWIDTH 556 0
DWIDTH 27 0
BBX 19 40 4 -6
BITMAP
03FE00
0FFF80
3FFF80
7FFF80
7E0380
FC0000
F80000
F80000
F80000
FC0000
7E0000
7F8000
3FF000
1FFC00
3FFF00
79FF80
F03FC0
F00FC0
F003E0
F003E0
F801E0
FC01E0
FF03E0
7FC3C0
3FFF80
1FFF80
07FF80
00FFC0
001FC0
0007E0
0003E0
0003E0
0003E0
0003E0
8007E0
E01FC0
FFFF80
FFFF00
FFFE00
1FF000
ENDCHAR
STARTCHAR dieresis
ENCODING 168
SWIDTH 278 0
DWIDTH 13 0
BBX 13 5 0 28
BITMAP
F8F8
F8F8
F8F8
F8F8
F8F8
ENDCHAR
STARTCHAR copyright
ENCODING 169
SWIDTH 800 0
DWIDTH 38 0
BBX 34 34 2 0
BITMAP
0007F80000
003FFF0000
00FFFFC000
01FF3FE000
07F003F000
0FC000F800
0F80007C00
1F03F83E00
3E0FFE1F00
3C1FFF0F00
7C3F1F8F80
787C078780
787803C780
F0F003C3C0
F0F00003C0
F0F00003C0
F0F00003C0
F0F00003C0
F0F00003C0
F0F00003C0
F0F003C3C0
787803C780
787C078780
783F0F8F80
3C1FFF0F00
3E0FFE1F00
1F03F83E00
0F80007C00
0FC000FC00
07F003F800
01FF3FE000
00FFFFC000
003FFF0000
0007F80000
ENDCHAR
STARTCHAR ordfeminine
ENCODING 170
SWIDTH 361 0
DWIDTH 17 0
BBX 15 15 1 19
BITMAP
0FF0
3FF8
3FFC
203E
001E
001E
0FFE
3FFE
7FFE
F81E
F01E
F03E
FFFE
7FDE
1F9E
ENDCHAR
STARTCHAR guillemotleft
ENCODING 171
SWIDTH 556 0
DWIDTH 27 0
BBX 21 19 2 3
BITMAP
03E0F8
03C0F0
0781E0
0F83E0
0F03C0
1F07C0
3E0F80
7C1F00
7C1F00
F83E00
7C1F00
7C1F00
3E0F80
1F07C0
0F03C0
0F83E0
0781E0
03C0F0
03E0F8
ENDCHAR
STARTCHAR logicalnot
ENCODING 172
SWIDTH 600 0
DWIDTH 29 0
BBX 24 14 2 5
BITMAP
FFFFFF
FFFFFF
FFFFFF
FFFFFF
00000F
00000F
00000F
00000F
00000F
00000F
00000F
00000F
00000F
00000F
ENDCHAR
STARTCHAR hyphen.dup1
ENCODING 173
SWIDTH 333 0
DWIDTH 16 0
BBX 12 4 2 11
BITMAP
FFF0
FFF0
FFF0
FFF0
ENDCHAR
STARTCHAR registered
ENCODING 174
SWIDTH 800 0
DWIDTH 38 0
BBX 34 34 2 0
BITMAP
0007F80000
003FFF0000
00FFFFC000
01FF3FE000
07F003F000
0FC000F800
0F80007C00
1F1FE03E00
3E1FFE1F00
3C1FFF0F00
7C1C0F8F80
781C078780
781C038780
F01C0783C0
F01C0783C0
F01FFF83C0
F01FFF03C0
F01FFC03C0
F01C7003C0
F01C7803C0
F01C3C03C0
781C1C0780
781C1E0780
781C0E0F80
3C1C0F0F00
3E1C079F00
1F00003E00
0F80007C00
0FC000FC00
07F003F800
01FF3FE000
00FFFFC000
003FFF0000
0007F80000
ENDCHAR
STARTCHAR macron
ENCODING 175
SWIDTH 278 0
DWIDTH 13 0
BBX 14 3 0 29
BITMAP
FFFC
FFFC
FFFC
ENDCHAR
STARTCHAR degree
ENCODING 176
SWIDTH 400 0
DWIDTH 19 0
BBX 14 14 3 20
BITMAP
0FC0
1FE0
3FF0
7878
F03C
E01C
E01C
E01C
E01C
F03C
7878
3FF0
1FE0
0FC0
ENDCHAR
STARTCHAR plusminus
ENCODING 177
SWIDTH 600 0
DWIDTH 29 0
BBX 24 24 2 0
BITMAP
003C00
003C00
003C00
003C00
003C00
003C00
003C00
FFFFFF
FFFFFF
FFFFFF
FFFFFF
003C00
003C00
003C00
003C00
003C00
003C00
003C00
000000
000000
FFFFFF
FFFFFF
FFFFFF
FFFFFF
ENDCHAR
STARTCHAR twosuperior
ENCODING 178
SWIDTH 361 0
DWIDTH 17 0
BBX 15 21 1 13
BITMAP
1FC0
7FF0
7FF8
79FC
407C
003C
003C
003C
0078
00F8
00F0
01E0
03E0
07C0
0F80
3F00
7E00
F800
FFFE
FFFE
FFFE
ENDCHAR
STARTCHAR threesuperior
ENCODING 179
SWIDTH 361 0
DWIDTH 17 0
BBX 14 21 2 13
BITMAP
3FC0
7FF0
7FF8
71FC
007C
003C
007C
00F8
1FF0
1FC0
1FE0
03F8
0078
003C
003C
003C
007C
E1FC
FFF8
FFF0
7FC0
ENDCHAR
STARTCHAR acute
ENCODING 180
SWIDTH 278 0
DWIDTH 13 0
BBX 9 7 4 28
BITMAP
0F80
1F00
1E00
3C00
7800
7000
E000
ENDCHAR
STARTCHAR mu
ENCODING 181
SWIDTH 611 0
DWIDTH 29 0
BBX 22 35 4 -10
BITMAP
F8007C
F8007C
F8007C
F8007C
F8007C
F8007C
F8007C
F8007C
F8007C
F8007C
F8007C
F8007C
F8007C
F8007C
F8007C
F8007C
F800FC
F800FC
FC01FC
FC01FC
FE07FC
FFFFFC
FFFF7C
FFFE7C
FBF07C
F80000
F80000
F80000
F80000
F80000
F80000
F80000
F80000
F80000
F80000
ENDCHAR
STARTCHAR paragraph
ENCODING 182
SWIDTH 600 0
DWIDTH 29 0
BBX 24 39 1 -5
BITMAP
03FFFF
0FFFFF
3FFFFF
7FFC0F
7FFC0F
FFFC0F
FFFC0F
FFFC0F
FFFC0F
FFFC0F
FFFC0F
FFFC0F
FFFC0F
7FFC0F
3FFC0F
1FFC0F
0FFC0F
007C0F
003C0F
003C0F
003C0F
003C0F
003C0F
003C0F
003C0F
003C0F
003C0F
003C0F
003C0F
003C0F
003C0F
003C0F
003C0F
003C0F
003C0F
003C0F
003C0F
003C0F
003C0F
ENDCHAR
STARTCHAR periodcentered
ENCODING 183
SWIDTH 278 0
DWIDTH 13 0
BBX 6 6 4 11
BITMAP
78
FC
FC
FC
FC
78
ENDCHAR
STARTCHAR cedilla
ENCODING 184
SWIDTH 278 0
DWIDTH 13 0
BBX 11 10 5 -10
BITMAP
0600
0C00
1800
3FC0
23C0
01E0
01E0
43C0
7F80
FF00
ENDCHAR
STARTCHAR onesuperior
ENCODING 185
SWIDTH 361 0
DWIDTH 17 0
BBX 9 20 2 14
BITMAP
0780
0F80
3F80
7F80
F780
6780
0780
0780
0780
0780
0780
0780
0780
0780
0780
0780
0780
0780
0780
0780
ENDCHAR
STARTCHAR ordmasculine
ENCODING 186
SWIDTH 397 0
DWIDTH 19 0
BBX 17 15 1 19
BITMAP
07F000
1FFC00
3FFE00
7C1F00
780F00
F00780
F00780
F00780
F00780
F00780
780F00
7C1F00
3FFE00
1FFC00
07F000
ENDCHAR
STARTCHAR guillemotright
ENCODING 187
SWIDTH 556 0
DWIDTH 27 0
BBX 21 19 3 3
BITMAP
F83E00
781E00
3C0F00
3E0F80
1E0780
1F07C0
0F83E0
07C1F0
07C1F0
03E0F8
07C1F0
07C1F0
0F83E0
1F07C0
1E0780
3E0F80
3C0F00
781E00
F83E00
ENDCHAR
STARTCHAR onequarter
ENCODING 188
SWIDTH 834 0
DWIDTH 40 0
BBX 37 36 2 -1
BITMAP
0000007800
0780007000
1F8000F000
3F8000E000
7F8001E000
F78001C000
678003C000
0780078000
0780070000
07800F0000
07800E0000
07801E0000
07801C0000
0780380000
0780780000
0780700FC0
0780F00FC0
0780E01FC0
0781E03FC0
0781C03BC0
07838073C0
000780F3C0
000700E3C0
000F01E3C0
000E03C3C0
001E0383C0
003C0783C0
00380F03C0
00780FFFF8
00700FFFF8
00F00FFFF8
00E00003C0
01C00003C0
03C00003C0
03800003C0
0780000000
ENDCHAR
STARTCHAR onehalf
ENCODING 189
SWIDTH 834 0
DWIDTH 40 0
BBX 37 36 2 -1
BITMAP
000001E000
078001C000
1F8003C000
3F80038000
7F80078000
F780070000
67800F0000
07801E0000
07801C0000
07803C0000
0780380000
0780780000
0780700000
0780E00000
0781E07F00
0781C1FFC0
0783C1FFE0
078381E7F0
07878101F0
07870000F0
078E0000F0
001E0000F0
001C0001E0
003C0003E0
00380003C0
0078000780
00F0000F80
00E0001F00
01E0003E00
01C000FC00
03C001F800
038003E000
070003FFF8
0F0003FFF8
0E0003FFF8
1E00000000
ENDCHAR
STARTCHAR threequarters
ENCODING 190
SWIDTH 834 0
DWIDTH 40 0
BBX 37 36 2 -1
BITMAP
0000001E00
3FC0001C00
7FF0003C00
7FF8003800
71FC007800
007C007000
003C00F000
007C01E000
00F801C000
1FF003C000
1FC0038000
1FE0078000
03F8070000
00780E0000
003C1E0000
003C1C0FC0
003C3C0FC0
007C381FC0
E1FC783FC0
FFF8703BC0
FFF0E073C0
7FC1E0F3C0
0001C0E3C0
0003C1E3C0
000383C3C0
00078383C0
000F0783C0
000E0F03C0
001E0FFFF8
001C0FFFF8
003C0FFFF8
00380003C0
00700003C0
00F00003C0
00E00003C0
01E0000000
ENDCHAR
STARTCHAR questiondown
ENCODING 191
SWIDTH 500 0
DWIDTH 24 0
BBX 18 35 2 -10
BITMAP
01F000
01F000
01F000
01F000
01F000
000000
000000
000000
000000
01F000
01F000
01F000
01F000
01F000
03E000
07E000
07C000
0F8000
1F8000
3F0000
3E0000
7C0000
7C0000
F80000
F80000
F80000
F80000
F80000
FC0000
7E00C0
7F83C0
3FFFC0
1FFFC0
0FFFC0
01FE00
ENDCHAR
STARTCHAR Agrave
ENCODING 192
SWIDTH 722 0
DWIDTH 35 0
BBX 33 43 1 0
BITMAP
003E000000
001F000000
000F000000
0007800000
0003C00000
0001C00000
0000E00000
0000000000
0000000000
0003E00000
0007F00000
0007F00000
0007F00000
000FF80000
000F780000
001F7C0000
001E3C0000
003E3E0000
003C3E0000
003C1E0000
007C1F0000
00780F0000
00F80F8000
00F00F8000
01F0078000
01F007C000
01E003C000
03E003E000
03C003E000
07C001F000
07FFFFF000
07FFFFF000
0FFFFFF800
0FFFFFF800
1F00007C00
1F00007C00
3E00003C00
3E00003E00
3C00003E00
7C00001F00
7C00001F00
F800000F80
F800000F80
ENDCHAR
STARTCHAR Aacute
ENCODING 193
SWIDTH 722 0
DWIDTH 35 0
BBX 33 43 1 0
BITMAP
00003E0000
00007C0000
0000780000
0000F00000
0001E00000
0001C00000
0003800000
0000000000
0000000000
0003E00000
0007F00000
0007F00000
0007F00000
000FF80000
000F780000
001F7C0000
001E3C0000
003E3E0000
003C3E0000
003C1E0000
007C1F0000
00780F0000
00F80F8000
00F00F8000
01F0078000
01F007C000
01E003C000
03E003E000
03C003E000
07C001F000
07FFFFF000
07FFFFF000
0FFFFFF800
0FFFFFF800
1F00007C00
1F00007C00
3E00003C00
3E00003E00
3C00003E00
7C00001F00
7C00001F00
F800000F80
F800000F80
ENDCHAR
STARTCHAR Acircumflex
ENCODING 194
SWIDTH 722 0
DWIDTH 35 0
BBX 33 43 1 0
BITMAP
0003C00000
0007E00000
000FF00000
001E780000
001E780000
003C3C0000
00781E0000
0000000000
0000000000
0003E00000
0007F00000
0007F00000
0007F00000
000FF80000
000F780000
001F7C0000
001E3C0000
003E3E0000
003C3E0000
003C1E0000
007C1F0000
00780F0000
00F80F8000
00F00F8000
01F0078000
01F007C000
01E003C000
03E003E000
03C003E000
07C001F000
07FFFFF000
07FFFFF000
0FFFFFF800
0FFFFFF800
1F00007C00
1F00007C00
3E00003C00
3E00003E00
3C00003E00
7C00001F00
7C00001F00
F800000F80
F800000F80
ENDCHAR
STARTCHAR Atilde
ENCODING 195
SWIDTH 722 0
DWIDTH 35 0
BBX 33 42 1 0
BITMAP
001F018000
003FE38000
003FFF0000
0071FF0000
00603E0000
0000000000
0000000000
0000000000
0003E00000
0007F00000
0007F00000
0007F00000
000FF80000
000F780000
001F7C0000
001E3C0000
003E3E0000
003C3E0000
003C1E0000
007C1F0000
00780F0000
00F80F8000
00F00F8000
01F0078000
01F007C000
01E003C000
03E003E000
03C003E000
07C001F000
07FFFFF000
07FFFFF000
0FFFFFF800
0FFFFFF800
1F00007C00
1F00007C00
3E00003C00
3E00003E00
3C00003E00
7C00001F00
7C00001F00
F800000F80
F800000F80
ENDCHAR
STARTCHAR Adieresis
ENCODING 196
SWIDTH 722 0
DWIDTH 35 0
BBX 33 41 1 0
BITMAP
003E3E0000
003E3E0000
003E3E0000
003E3E0000
003E3E0000
0000000000
0000000000
0003E00000
0007F00000
0007F00000
0007F00000
000FF80000
000F780000
001F7C0000
001E3C0000
003E3E0000
003C3E0000
003C1E0000
007C1F0000
00780F0000
00F80F8000
00F00F8000
01F0078000
01F007C000
01E003C000
03E003E000
03C003E000
07C001F000
07FFFFF000
07FFFFF000
0FFFFFF800
0FFFFFF800
1F00007C00
1F00007C00
3E00003C00
3E00003E00
3C00003E00
7C00001F00
7C00001F00
F800000F80
F800000F80
ENDCHAR
STARTCHAR Aring
ENCODING 197
SWIDTH 722 0
DWIDTH 35 0
BBX 33 45 1 0
BITMAP
0001E00000
0007F80000
0006180000
000C0C0000
000C0C0000
000C0C0000
000C0C0000
0006180000
0007F80000
0001E00000
0000000000
0003E00000
0007F00000
0007F00000
0007F00000
000FF80000
000F780000
001F7C0000
001E3C0000
003E3E0000
003C3E0000
003C1E0000
007C1F0000
00780F0000
00F80F8000
00F00F8000
01F0078000
01F007C000
01E003C000
03E003E000
03C003E000
07C001F000
07FFFFF000
07FFFFF000
0FFFFFF800
0FFFFFF800
1F00007C00
1F00007C00
3E00003C00
3E00003E00
3C00003E00
7C00001F00
7C00001F00
F800000F80
F800000F80
ENDCHAR
STARTCHAR AE
ENCODING 198
SWIDTH 944 0
DWIDTH 45 0
BBX 42 34 0 0
BITMAP
00000FFFFF80
00001FFFFF80
00001FFFFF80
00003FFFFF80
00007DF00000
00007DF00000
0000F9F00000
0000F9F00000
0001F1F80000
0003E0F80000
0003E0F80000
0007C0F80000
0007C0F80000
000F80F80000
001F00FFFF00
001F00FFFF00
003E00FFFF00
003E00FFFF00
007C00F80000
00F800F80000
00F800F80000
01FFFFF80000
01FFFFF80000
03FFFFF80000
07FFFFF80000
07C000F80000
0F80007C0000
0F80007C0000
1F00007C0000
1F00007C0000
3E00007FFFC0
7E00007FFFC0
7C00007FFFC0
F800007FFFC0
ENDCHAR
STARTCHAR Ccedilla
ENCODING 199
SWIDTH 611 0
DWIDTH 29 0
BBX 25 44 3 -10
BITMAP
0007FE00
003FFF80
00FFFF80
03FFFF80
07FE0F80
0FF00080
1FC00000
1F800000
3F000000
7E000000
7E000000
7C000000
FC000000
F8000000
F8000000
F8000000
F8000000
F8000000
F8000000
F8000000
F8000000
FC000000
7C000000
7E000000
7E000000
3F000000
3F800000
1FC00000
0FF00080
07FE0780
03FFFF80
00FFFF80
007FFF80
000FFF00
00030000
00060000
000FC000
000FE000
0000F000
00007000
00007000
0020F000
003FE000
001F8000
ENDCHAR
STARTCHAR Egrave
ENCODING 200
SWIDTH 556 0
DWIDTH 27 0
BBX 19 43 5 0
BITMAP
3E0000
1F0000
0F0000
078000
03C000
01C000
00E000
000000
000000
FFFFE0
FFFFE0
FFFFE0
FFFFE0
F80000
F80000
F80000
F80000
F80000
F80000
F80000
F80000
F80000
F80000
FFFFC0
FFFFC0
FFFFC0
FFFFC0
F80000
F80000
F80000
F80000
F80000
F80000
F80000
F80000
F80000
F80000
F80000
F80000
FFFFE0
FFFFE0
FFFFE0
FFFFE0
ENDCHAR
STARTCHAR Eacute
ENCODING 201
SWIDTH 556 0
DWIDTH 27 0
BBX 19 43 5 0
BITMAP
003E00
007C00
007800
00F000
01E000
01C000
038000
000000
000000
FFFFE0
FFFFE0
FFFFE0
FFFFE0
F80000
F80000
F80000
F80000
F80000
F80000
F80000
F80000
F80000
F80000
FFFFC0
FFFFC0
FFFFC0
FFFFC0
F80000
F80000
F80000
F80000
F80000
F80000
F80000
F80000
F80000
F80000
F80000
F80000
FFFFE0
FFFFE0
FFFFE0
FFFFE0
ENDCHAR
STARTCHAR Ecircumflex
ENCODING 202
SWIDTH 556 0
DWIDTH 27 0
BBX 19 43 5 0
BITMAP
03C000
07E000
0FF000
1E7800
1E7800
3C3C00
781E00
000000
000000
FFFFE0
FFFFE0
FFFFE0
FFFFE0
F80000
F80000
F80000
F80000
F80000
F80000
F80000
F80000
F80000
F80000
FFFFC0
FFFFC0
FFFFC0
FFFFC0
F80000
F80000
F80000
F80000
F80000
F80000
F80000
F80000
F80000
F80000
F80000
F80000
FFFFE0
FFFFE0
FFFFE0
FFFFE0
ENDCHAR
STARTCHAR Edieresis
ENCODING 203
SWIDTH 556 0
DWIDTH 27 0
BBX 19 41 5 0
BITMAP
3E3E00
3E3E00
3E3E00
3E3E00
3E3E00
000000
000000
FFFFE0
FFFFE0
FFFFE0
FFFFE0
F80000
F80000
F80000
F80000
F80000
F80000
F80000
F80000
F80000
F80000
FFFFC0
FFFFC0
FFFFC0
FFFFC0
F80000
F80000
F80000
F80000
F80000
F80000
F80000
F80000
F80000
F80000
F80000
F80000
FFFFE0
FFFFE0
FFFFE0
FFFFE0
ENDCHAR
STARTCHAR Igrave
ENCODING 204
SWIDTH 278 0
DWIDTH 13 0
BBX 9 43 0 0
BITMAP
F800
7C00
3C00
1E00
0F00
0700
0380
0000
0000
0F80
0F80
0F80
0F80
0F80
0F80
0F80
0F80
0F80
0F80
0F80
0F80
0F80
0F80
0F80
0F80
0F80
0F80
0F80
0F80
0F80
0F80
0F80
0F80
0F80
0F80
0F80
0F80
0F80
0F80
0F80
0F80
0F80
0F80
ENDCHAR
STARTCHAR Iacute
ENCODING 205
SWIDTH 278 0
DWIDTH 13 0
BBX 9 43 4 0
BITMAP
0F80
1F00
1E00
3C00
7800
7000
E000
0000
0000
F800
F800
F800
F800
F800
F800
F800
F800
F800
F800
F800
F800
F800
F800
F800
F800
F800
F800
F800
F800
F800
F800
F800
F800
F800
F800
F800
F800
F800
F800
F800
F800
F800
F800
ENDCHAR
STARTCHAR Icircumflex
ENCODING 206
SWIDTH 278 0
DWIDTH 13 0
BBX 14 43 -1 0
BITMAP
0780
0FC0
1FE0
3CF0
3CF0
7878
F03C
0000
0000
07C0
07C0
07C0
07C0
07C0
07C0
07C0
07C0
07C0
07C0
07C0
07C0
07C0
07C0
07C0
07C0
07C0
07C0
07C0
07C0
07C0
07C0
07C0
07C0
07C0
07C0
07C0
07C0
07C0
07C0
07C0
07C0
07C0
07C0
ENDCHAR
STARTCHAR Idieresis
ENCODING 207
SWIDTH 278 0
DWIDTH 13 0
BBX 13 41 0 0
BITMAP
F8F8
F8F8
F8F8
F8F8
F8F8
0000
0000
0F80
0F80
0F80
0F80
0F80
0F80
0F80
0F80
0F80
0F80
0F80
0F80
0F80
0F80
0F80
0F80
0F80
0F80
0F80
0F80
0F80
0F80
0F80
0F80
0F80
0F80
0F80
0F80
0F80
0F80
0F80
0F80
0F80
0F80
ENDCHAR
STARTCHAR Eth
ENCODING 208
SWIDTH 722 0
DWIDTH 35 0
BBX 31 34 1 0
BITMAP
1FFFC000
1FFFF800
1FFFFE00
1FFFFF00
1F00FFC0
1F001FE0
1F0007E0
1F0003F0
1F0001F8
1F0000F8
1F0000FC
1F00007C
1F00007C
1F00007C
FFFF807E
FFFF803E
FFFF803E
1F00003E
1F00003E
1F00007E
1F00007C
1F00007C
1F00007C
1F0000FC
1F0000F8
1F0001F8
1F0001F0
1F0007F0
1F000FE0
1F00FFC0
1FFFFF80
1FFFFE00
1FFFF800
1FFFC000
ENDCHAR
STARTCHAR Ntilde
ENCODING 209
SWIDTH 722 0
DWIDTH 35 0
BBX 26 42 4 0
BITMAP
00F80C00
01FF1C00
01FFF800
038FF800
0301F000
00000000
00000000
00000000
FE0007C0
FF0007C0
FF0007C0
FF8007C0
FF8007C0
FFC007C0
FFC007C0
FBE007C0
FBE007C0
F9F007C0
F9F007C0
F8F807C0
F8F807C0
F87C07C0
F87C07C0
F83E07C0
F81E07C0
F81F07C0
F80F07C0
F80F87C0
F80787C0
F807C7C0
F803C7C0
F803E7C0
F801E7C0
F801F7C0
F800F7C0
F800FFC0
F8007FC0
F8007FC0
F8003FC0
F8003FC0
F8001FC0
F8001FC0
ENDCHAR
STARTCHAR Ograve
ENCODING 210
SWIDTH 778 0
DWIDTH 37 0
BBX 32 43 3 0
BITMAP
007C0000
003E0000
001E0000
000F0000
00078000
00038000
0001C000
00000000
00000000
000FF000
007FFE00
01FFFF80
03FFFFE0
07F81FF0
0FE007F0
1F8001F8
3F0000FC
3E00007C
7E00007E
7C00003E
7C00003E
FC00001F
F800001F
F800001F
F800001F
F800001F
F800001F
F800001F
F800001F
F800001F
FC00001F
7C00003E
7C00003E
7E00007E
3E00007C
3F0000FC
1F8001F8
0FE007F8
0FF81FF0
03FFFFE0
01FFFF80
007FFE00
001FF800
ENDCHAR
STARTCHAR Oacute
ENCODING 211
SWIDTH 778 0
DWIDTH 37 0
BBX 32 43 3 0
BITMAP
00007C00
0000F800
0000F000
0001E000
0003C000
00038000
00070000
00000000
00000000
000FF000
007FFE00
01FFFF80
03FFFFE0
07F81FF0
0FE007F0
1F8001F8
3F0000FC
3E00007C
7E00007E
7C00003E
7C00003E
FC00001F
F800001F
F800001F
F800001F
F800001F
F800001F
F800001F
F800001F
F800001F
FC00001F
7C00003E
7C00003E
7E00007E
3E00007C
3F0000FC
1F8001F8
0FE007F8
0FF81FF0
03FFFFE0
01FFFF80
007FFE00
001FF800
ENDCHAR
STARTCHAR Ocircumflex
ENCODING 212
SWIDTH 778 0
DWIDTH 37 0
BBX 32 43 3 0
BITMAP
00078000
000FC000
001FE000
003CF000
003CF000
00787800
00F03C00
00000000
00000000
000FF000
007FFE00
01FFFF80
03FFFFE0
07F81FF0
0FE007F0
1F8001F8
3F0000FC
3E00007C
7E00007E
7C00003E
7C00003E
FC00001F
F800001F
F800001F
F800001F
F800001F
F800001F
F800001F
F800001F
F800001F
FC00001F
7C00003E
7C00003E
7E00007E
3E00007C
3F0000FC
1F8001F8
0FE007F8
0FF81FF0
03FFFFE0
01FFFF80
007FFE00
001FF800
ENDCHAR
STARTCHAR Otilde
ENCODING 213
SWIDTH 778 0
DWIDTH 37 0
BBX 32 42 3 0
BITMAP
003E0300
007FC700
007FFE00
00E3FE00
00C07C00
00000000
00000000
00000000
000FF000
007FFE00
01FFFF80
03FFFFE0
07F81FF0
0FE007F0
1F8001F8
3F0000FC
3E00007C
7E00007E
7C00003E
7C00003E
FC00001F
F800001F
F800001F
F800001F
F800001F
F800001F
F800001F
F800001F
F800001F
FC00001F
7C00003E
7C00003E
7E00007E
3E00007C
3F0000FC
1F8001F8
0FE007F8
0FF81FF0
03FFFFE0
01FFFF80
007FFE00
001FF800
ENDCHAR
STARTCHAR Odieresis
ENCODING 214
SWIDTH 778 0
DWIDTH 37 0
BBX 32 41 3 0
BITMAP
007C7C00
007C7C00
007C7C00
007C7C00
007C7C00
00000000
00000000
000FF000
007FFE00
01FFFF80
03FFFFE0
07F81FF0
0FE007F0
1F8001F8
3F0000FC
3E00007C
7E00007E
7C00003E
7C00003E
FC00001F
F800001F
F800001F
F800001F
F800001F
F800001F
F800001F
F800001F
F800001F
FC00001F
7C00003E
7C00003E
7E00007E
3E00007C
3F0000FC
1F8001F8
0FE007F8
0FF81FF0
03FFFFE0
01FFFF80
007FFE00
001FF800
ENDCHAR
STARTCHAR multiply
ENCODING 215
SWIDTH 600 0
DWIDTH 29 0
BBX 22 22 3 1
BITMAP
200010
700038
F8007C
7C00F8
3E01F0
1F03E0
0F87C0
07CF80
03FF00
01FE00
00FC00
00FC00
01FE00
03FF00
07CF80
0F87C0
1F03E0
3E01F0
7C00F8
F8007C
700038
200010
ENDCHAR
STARTCHAR Oslash
ENCODING 216
SWIDTH 778 0
DWIDTH 37 0
BBX 32 35 3 -1
BITMAP
000FF008
007FFE1C
01FFFFB8
03FFFFF0
07F81FF0
0FE007F0
1F8001F8
3F0003FC
3E00077C
7E00067E
7C000E3E
7C001C3E
FC00381F
F800701F
F800601F
F800E01F
F801C01F
F803801F
F807001F
F807001F
F80E001F
FC1C001F
7C38003E
7C30003E
7E70007E
3EE0007C
3FC000FC
1F8001F8
0FE007F8
0FFC1FF0
0FFFFFE0
1DFFFF80
187FFE00
381FF000
10000000
ENDCHAR
STARTCHAR Ugrave
ENCODING 217
SWIDTH 722 0
DWIDTH 35 0
BBX 26 43 4 0
BITMAP
01F00000
00F80000
00780000
003C0000
001E0000
000E0000
00070000
00000000
00000000
F80007C0
F80007C0
F80007C0
F80007C0
F80007C0
F80007C0
F80007C0
F80007C0
F80007C0
F80007C0
F80007C0
F80007C0
F80007C0
F80007C0
F80007C0
F80007C0
F80007C0
F80007C0
F80007C0
F80007C0
F80007C0
F80007C0
F80007C0
F80007C0
FC000F80
7C000F80
7E001F80
7E001F00
3F003F00
1FE1FE00
0FFFFC00
07FFF800
03FFF000
007F8000
ENDCHAR
STARTCHAR Uacute
ENCODING 218
SWIDTH 722 0
DWIDTH 35 0
BBX 26 43 4 0
BITMAP
0001F000
0003E000
0003C000
00078000
000F0000
000E0000
001C0000
00000000
00000000
F80007C0
F80007C0
F80007C0
F80007C0
F80007C0
F80007C0
F80007C0
F80007C0
F80007C0
F80007C0
F80007C0
F80007C0
F80007C0
F80007C0
F80007C0
F80007C0
F80007C0
F80007C0
F80007C0
F80007C0
F80007C0
F80007C0
F80007C0
F80007C0
FC000F80
7C000F80
7E001F80
7E001F00
3F003F00
1FE1FE00
0FFFFC00
07FFF800
03FFF000
007F8000
ENDCHAR
STARTCHAR Ucircumflex
ENCODING 219
SWIDTH 722 0
DWIDTH 35 0
BBX 26 43 4 0
BITMAP
001E0000
003F0000
007F8000
00F3C000
00F3C000
01E1E000
03C0F000
00000000
00000000
F80007C0
F80007C0
F80007C0
F80007C0
F80007C0
F80007C0
F80007C0
F80007C0
F80007C0
F80007C0
F80007C0
F80007C0
F80007C0
F80007C0
F80007C0
F80007C0
F80007C0
F80007C0
F80007C0
F80007C0
F80007C0
F80007C0
F80007C0
F80007C0
FC000F80
7C000F80
7E001F80
7E001F00
3F003F00
1FE1FE00
0FFFFC00
07FFF800
03FFF000
007F8000
ENDCHAR
STARTCHAR Udieresis
ENCODING 220
SWIDTH 722 0
DWIDTH 35 0
BBX 26 41 4 0
BITMAP
01F1F000
01F1F000
01F1F000
01F1F000
01F1F000
00000000
00000000
F80007C0
F80007C0
F80007C0
F80007C0
F80007C0
F80007C0
F80007C0
F80007C0
F80007C0
F80007C0
F80007C0
F80007C0
F80007C0
F80007C0
F80007C0
F80007C0
F80007C0
F80007C0
F80007C0
F80007C0
F80007C0
F80007C0
F80007C0
F80007C0
FC000F80
7C000F80
7E001F80
7E001F00
3F003F00
1FE1FE00
0FFFFC00
07FFF800
03FFF000
007F8000
ENDCHAR
STARTCHAR Yacute
ENCODING 221
SWIDTH 667 0
DWIDTH 32 0
BBX 31 43 1 0
BITMAP
0000F800
0001F000
0001E000
0003C000
00078000
00070000
000E0000
00000000
00000000
FC00007E
7E0000FC
3E0000F8
3F0001F8
1F0001F0
0F8003E0
0FC007E0
07C007C0
03E00F80
03F01F80
01F01F00
01F83E00
00FC7E00
007C7C00
007EFC00
003FF800
001FF000
001FF000
000FE000
0007C000
0007C000
0007C000
0007C000
0007C000
0007C000
0007C000
0007C000
0007C000
0007C000
0007C000
0007C000
0007C000
0007C000
0007C000
ENDCHAR
STARTCHAR Thorn
ENCODING 222
SWIDTH 556 0
DWIDTH 27 0
BBX 21 34 4 0
BITMAP
F80000
F80000
F80000
F80000
F80000
FFFC00
FFFF00
FFFFC0
FFFFE0
F81FF0
F803F0
F801F8
F800F8
F800F8
F800F8
F800F8
F800F8
F800F8
F801F8
F803F0
F80FF0
FFFFE0
FFFFC0
FFFF00
FFFC00
F80000
F80000
F80000
F80000
F80000
F80000
F80000
F80000
F80000
ENDCHAR
STARTCHAR germandbls
ENCODING 223
SWIDTH 611 0
DWIDTH 29 0
BBX 23 36 4 0
BITMAP
00FE00
07FF80
0FFFE0
1FFFF0
3F03F0
7E01F8
7C00F8
7C00FC
FC007C
F8007C
F8007C
F800F8
F800F8
F801F8
F803F0
F87FE0
F87F80
F87FC0
F87FF0
F807F8
F800FC
F8007C
F8003E
F8003E
F8003E
F8003E
F8003E
F8003E
F8003E
F8007E
F800FC
F801FC
F8FFF8
F8FFF0
F8FFC0
F8FF00
ENDCHAR
STARTCHAR agrave
ENCODING 224
SWIDTH 556 0
DWIDTH 27 0
BBX 21 35 2 0
BITMAP
07C000
03E000
01E000
00F000
007800
003800
001C00
000000
000000
000000
01FE00
0FFF80
1FFFE0
1FFFE0
1C03F0
1001F0
0001F8
0000F8
0000F8
0000F8
01FFF8
0FFFF8
3FFFF8
7FE0F8
7E00F8
FC00F8
F800F8
F800F8
F801F8
F803F8
FC07F8
7FFFF8
7FFEF8
1FFCF8
07F0F8
ENDCHAR
STARTCHAR aacute
ENCODING 225
SWIDTH 556 0
DWIDTH 27 0
BBX 21 35 2 0
BITMAP
0007C0
000F80
000F00
001E00
003C00
003800
007000
000000
000000
000000
01FE00
0FFF80
1FFFE0
1FFFE0
1C03F0
1001F0
0001F8
0000F8
0000F8
0000F8
01FFF8
0FFFF8
3FFFF8
7FE0F8
7E00F8
FC00F8
F800F8
F800F8
F801F8
F803F8
FC07F8
7FFFF8
7FFEF8
1FFCF8
07F0F8
ENDCHAR
STARTCHAR acircumflex
ENCODING 226
SWIDTH 556 0
DWIDTH 27 0
BBX 21 35 2 0
BITMAP
007800
00FC00
01FE00
03CF00
03CF00
078780
0F03C0
000000
000000
000000
01FE00
0FFF80
1FFFE0
1FFFE0
1C03F0
1001F0
0001F8
0000F8
0000F8
0000F8
01FFF8
0FFFF8
3FFFF8
7FE0F8
7E00F8
FC00F8
F800F8
F800F8
F801F8
F803F8
FC07F8
7FFFF8
7FFEF8
1FFCF8
07F0F8
ENDCHAR
STARTCHAR atilde
ENCODING 227
SWIDTH 556 0
DWIDTH 27 0
BBX 21 34 2 0
BITMAP
03E030
07FC70
07FFE0
0E3FE0
0C07C0
000000
000000
000000
000000
01FE00
0FFF80
1FFFE0
1FFFE0
1C03F0
1001F0
0001F8
0000F8
0000F8
0000F8
01FFF8
0FFFF8
3FFFF8
7FE0F8
7E00F8
FC00F8
F800F8
F800F8
F801F8
F803F8
FC07F8
7FFFF8
7FFEF8
1FFCF8
07F0F8
ENDCHAR
STARTCHAR adieresis
ENCODING 228
SWIDTH 556 0
DWIDTH 27 0
BBX 21 33 2 0
BITMAP
07C7C0
07C7C0
07C7C0
07C7C0
07C7C0
000000
000000
000000
01FE00
0FFF80
1FFFE0
1FFFE0
1C03F0
1001F0
0001F8
0000F8
0000F8
0000F8
01FFF8
0FFFF8
3FFFF8
7FE0F8
7E00F8
FC00F8
F800F8
F800F8
F801F8
F803F8
FC07F8
7FFFF8
7FFEF8
1FFCF8
07F0F8
ENDCHAR
STARTCHAR aring
ENCODING 229
SWIDTH 556 0
DWIDTH 27 0
BBX 21 37 2 0
BITMAP
003C00
00FF00
00C300
018180
018180
018180
018180
00C300
00FF00
003C00
000000
000000
01FE00
0FFF80
1FFFE0
1FFFE0
1C03F0
1001F0
0001F8
0000F8
0000F8
0000F8
01FFF8
0FFFF8
3FFFF8
7FE0F8
7E00F8
FC00F8
F800F8
F800F8
F801F8
F803F8
FC07F8
7FFFF8
7FFEF8
1FFCF8
07F0F8
ENDCHAR
STARTCHAR ae
ENCODING 230
SWIDTH 889 0
DWIDTH 43 0
BBX 39 25 2 0
BITMAP
01FE007F00
07FF83FFC0
1FFFE7FFF0
1FFFEFFFF0
1C03FF81F8
1000FF00FC
0000FE007C
00007C003C
00007C003E
00FFFC003E
07FFFFFFFE
1FFFFFFFFE
3FF3FFFFFE
7F007C0000
FC007C0000
F8007C0000
F800FE0000
F800FE0000
F801FF0000
FC03FF8008
7E07DFC038
3FFFCFFFF8
1FFF87FFF8
0FFF01FFF0
03F8007F80
ENDCHAR
STARTCHAR ccedilla
ENCODING 231
SWIDTH 444 0
DWIDTH 21 0
BBX 18 35 2 -10
BITMAP
007F80
03FFC0
07FFC0
1FFFC0
1F8040
3F0000
7E0000
7C0000
7C0000
F80000
F80000
F80000
F80000
F80000
F80000
F80000
7C0000
7C0000
7E0000
3F0000
1F8040
0FFFC0
07FFC0
03FFC0
007F80
003000
006000
00FC00
01FE00
000F00
000F00
000F00
020F00
03FE00
01F800
ENDCHAR
STARTCHAR egrave
ENCODING 232
SWIDTH 556 0
DWIDTH 27 0
BBX 22 35 2 0
BITMAP
07C000
03E000
01E000
00F000
007800
003800
001C00
000000
000000
000000
00FE00
03FFC0
0FFFE0
1FFFF0
3F01F8
3E00F8
7C007C
7C007C
F8007C
F8007C
FFFFFC
FFFFFC
FFFFFC
F80000
F80000
F80000
FC0000
7C0000
7E0000
3F0010
3F8070
1FFFF0
0FFFF0
03FFF0
00FF80
ENDCHAR
STARTCHAR eacute
ENCODING 233
SWIDTH 556 0
DWIDTH 27 0
BBX 22 35 2 0
BITMAP
0007C0
000F80
000F00
001E00
003C00
003800
007000
000000
000000
000000
00FE00
03FFC0
0FFFE0
1FFFF0
3F01F8
3E00F8
7C007C
7C007C
F8007C
F8007C
FFFFFC
FFFFFC
FFFFFC
F80000
F80000
F80000
FC0000
7C0000
7E0000
3F0010
3F8070
1FFFF0
0FFFF0
03FFF0
00FF80
ENDCHAR
STARTCHAR ecircumflex
ENCODING 234
SWIDTH 556 0
DWIDTH 27 0
BBX 22 35 2 0
BITMAP
007800
00FC00
01FE00
03CF00
03CF00
078780
0F03C0
000000
000000
000000
00FE00
03FFC0
0FFFE0
1FFFF0
3F01F8
3E00F8
7C007C
7C007C
F8007C
F8007C
FFFFFC
FFFFFC
FFFFFC
F80000
F80000
F80000
FC0000
7C0000
7E0000
3F0010
3F8070
1FFFF0
0FFFF0
03FFF0
00FF80
ENDCHAR
STARTCHAR edieresis
ENCODING 235
SWIDTH 556 0
DWIDTH 27 0
BBX 22 33 2 0
BITMAP
07C7C0
07C7C0
07C7C0
07C7C0
07C7C0
000000
000000
000000
00FE00
03FFC0
0FFFE0
1FFFF0
3F01F8
3E00F8
7C007C
7C007C
F8007C
F8007C
FFFFFC
FFFFFC
FFFFFC
F80000
F80000
F80000
FC0000
7C0000
7E0000
3F0010
3F8070
1FFFF0
0FFFF0
03FFF0
00FF80
ENDCHAR
STARTCHAR igrave
ENCODING 236
SWIDTH 278 0
DWIDTH 13 0
BBX 9 35 0 0
BITMAP
F800
7C00
3C00
1E00
0F00
0700
0380
0000
0000
0000
0F80
0F80
0F80
0F80
0F80
0F80
0F80
0F80
0F80
0F80
0F80
0F80
0F80
0F80
0F80
0F80
0F80
0F80
0F80
0F80
0F80
0F80
0F80
0F80
0F80
ENDCHAR
STARTCHAR iacute
ENCODING 237
SWIDTH 278 0
DWIDTH 13 0
BBX 9 35 4 0
BITMAP
0F80
1F00
1E00
3C00
7800
7000
E000
0000
0000
0000
F800
F800
F800
F800
F800
F800
F800
F800
F800
F800
F800
F800
F800
F800
F800
F800
F800
F800
F800
F800
F800
F800
F800
F800
F800
ENDCHAR
STARTCHAR icircumflex
ENCODING 238
SWIDTH 278 0
DWIDTH 13 0
BBX 14 35 -1 0
BITMAP
0780
0FC0
1FE0
3CF0
3CF0
7878
F03C
0000
0000
0000
07C0
07C0
07C0
07C0
07C0
07C0
07C0
07C0
07C0
07C0
07C0
07C0
07C0
07C0
07C0
07C0
07C0
07C0
07C0
07C0
07C0
07C0
07C0
07C0
07C0
ENDCHAR
STARTCHAR idieresis
ENCODING 239
SWIDTH 278 0
DWIDTH 13 0
BBX 13 33 0 0
BITMAP
F8F8
F8F8
F8F8
F8F8
F8F8
0000
0000
0000
0F80
0F80
0F80
0F80
0F80
0F80
0F80
0F80
0F80
0F80
0F80
0F80
0F80
0F80
0F80
0F80
0F80
0F80
0F80
0F80
0F80
0F80
0F80
0F80
0F80
ENDCHAR
STARTCHAR eth
ENCODING 240
SWIDTH 611 0
DWIDTH 29 0
BBX 25 36 2 0
BITMAP
06006000
0F81F000
3FE7F000
07FFC000
01FF0000
00FF0000
03FF8000
0FEFC000
1F87E000
0E03F000
0001F800
007EF800
03FFFC00
07FFFE00
1FFFFE00
1F80FE00
3F007F00
7E003F00
7C001F00
7C001F80
F8000F80
F8000F80
F8000F80
F8000F80
F8000F80
F8000F80
F8000F80
7C001F00
7C001F00
7E003F00
3F007E00
1F80FC00
0FFFF800
07FFF000
03FFE000
007F0000
ENDCHAR
STARTCHAR ntilde
ENCODING 241
SWIDTH 611 0
DWIDTH 29 0
BBX 22 34 4 0
BITMAP
07C060
0FF8E0
0FFFC0
1C7FC0
180F80
000000
000000
000000
000000
F83F00
F8FFC0
FBFFF0
FFFFF0
FF81F8
FE00F8
FE00FC
FC00FC
FC007C
F8007C
F8007C
F8007C
F8007C
F8007C
F8007C
F8007C
F8007C
F8007C
F8007C
F8007C
F8007C
F8007C
F8007C
F8007C
F8007C
ENDCHAR
STARTCHAR ograve
ENCODING 242
SWIDTH 611 0
DWIDTH 29 0
BBX 25 35 2 0
BITMAP
03E00000
01F00000
00F00000
00780000
003C0000
001C0000
000E0000
00000000
00000000
00000000
007F0000
03FFE000
07FFF000
1FFFFC00
1F80FE00
3F007E00
7E003F00
7C001F00
7C001F80
F8000F80
F8000F80
F8000F80
F8000F80
F8000F80
F8000F80
F8000F80
7C001F00
7C001F00
7E003F00
3F007E00
1F80FC00
0FFFF800
07FFF000
03FFE000
007F0000
ENDCHAR
STARTCHAR oacute
ENCODING 243
SWIDTH 611 0
DWIDTH 29 0
BBX 25 35 2 0
BITMAP
0003E000
0007C000
00078000
000F0000
001E0000
001C0000
00380000
00000000
00000000
00000000
007F0000
03FFE000
07FFF000
1FFFFC00
1F80FE00
3F007E00
7E003F00
7C001F00
7C001F80
F8000F80
F8000F80
F8000F80
F8000F80
F8000F80
F8000F80
F8000F80
7C001F00
7C001F00
7E003F00
3F007E00
1F80FC00
0FFFF800
07FFF000
03FFE000
007F0000
ENDCHAR
STARTCHAR ocircumflex
ENCODING 244
SWIDTH 611 0
DWIDTH 29 0
BBX 25 35 2 0
BITMAP
003C0000
007E0000
00FF0000
01E78000
01E78000
03C3C000
0781E000
00000000
00000000
00000000
007F0000
03FFE000
07FFF000
1FFFFC00
1F80FE00
3F007E00
7E003F00
7C001F00
7C001F80
F8000F80
F8000F80
F8000F80
F8000F80
F8000F80
F8000F80
F8000F80
7C001F00
7C001F00
7E003F00
3F007E00
1F80FC00
0FFFF800
07FFF000
03FFE000
007F0000
ENDCHAR
STARTCHAR otilde
ENCODING 245
SWIDTH 611 0
DWIDTH 29 0
BBX 25 34 2 0
BITMAP
01F01800
03FE3800
03FFF000
071FF000
0603E000
00000000
00000000
00000000
00000000
007F0000
03FFE000
07FFF000
1FFFFC00
1F80FE00
3F007E00
7E003F00
7C001F00
7C001F80
F8000F80
F8000F80
F8000F80
F8000F80
F8000F80
F8000F80
F8000F80
7C001F00
7C001F00
7E003F00
3F007E00
1F80FC00
0FFFF800
07FFF000
03FFE000
007F0000
ENDCHAR
STARTCHAR odieresis
ENCODING 246
SWIDTH 611 0
DWIDTH 29 0
BBX 25 33 2 0
BITMAP
03E3E000
03E3E000
03E3E000
03E3E000
03E3E000
00000000
00000000
00000000
007F0000
03FFE000
07FFF000
1FFFFC00
1F80FE00
3F007E00
7E003F00
7C001F00
7C001F80
F8000F80
F8000F80
F8000F80
F8000F80
F8000F80
F8000F80
F8000F80
7C001F00
7C001F00
7E003F00
3F007E00
1F80FC00
0FFFF800
07FFF000
03FFE000
007F0000
ENDCHAR
STARTCHAR divide
ENCODING 247
SWIDTH 600 0
DWIDTH 29 0
BBX 25 28 2 -2
BITMAP
001C0000
003F0000
007F0000
007F0000
007F0000
007F0000
003E0000
00000000
00000000
00000000
00000000
00000000
FFFFFF80
FFFFFF80
FFFFFF80
FFFFFF80
00000000
00000000
00000000
00000000
00000000
003E0000
007F0000
007F0000
007F0000
007F0000
003F0000
001C0000
ENDCHAR
STARTCHAR oslash
ENCODING 248
SWIDTH 611 0
DWIDTH 29 0
BBX 25 27 2 -1
BITMAP
00000200
007F0700
03FFE600
07FFFC00
1FFFFC00
1F80FE00
3F007E00
7E00DF00
7C00DF00
7C018F80
FC030F80
F8060F80
F80C0F80
F8180F80
F8180F80
F8300F80
F8600F80
7CC01F00
7D801F00
7F003F00
3F007E00
1F80FC00
0FFFF800
1FFFF000
33FFE000
707F0000
20000000
ENDCHAR
STARTCHAR ugrave
ENCODING 249
SWIDTH 611 0
DWIDTH 29 0
BBX 22 35 4 0
BITMAP
0F8000
07C000
03C000
01E000
00F000
007000
003800
000000
000000
000000
F8007C
F8007C
F8007C
F8007C
F8007C
F8007C
F8007C
F8007C
F8007C
F8007C
F8007C
F8007C
F8007C
F8007C
F8007C
F8007C
F800FC
F800FC
FC01FC
7C01FC
7E07FC
3FFFFC
3FFF7C
0FFC7C
07F07C
ENDCHAR
STARTCHAR uacute
ENCODING 250
SWIDTH 611 0
DWIDTH 29 0
BBX 22 35 4 0
BITMAP
000F80
001F00
001E00
003C00
007800
007000
00E000
000000
000000
000000
F8007C
F8007C
F8007C
F8007C
F8007C
F8007C
F8007C
F8007C
F8007C
F8007C
F8007C
F8007C
F8007C
F8007C
F8007C
F8007C
F800FC
F800FC
FC01FC
7C01FC
7E07FC
3FFFFC
3FFF7C
0FFC7C
07F07C
ENDCHAR
STARTCHAR ucircumflex
ENCODING 251
SWIDTH 611 0
DWIDTH 29 0
BBX 22 35 4 0
BITMAP
00F000
01F800
03FC00
079E00
079E00
0F0F00
1E0780
000000
000000
000000
F8007C
F8007C
F8007C
F8007C
F8007C
F8007C
F8007C
F8007C
F8007C
F8007C
F8007C
F8007C
F8007C
F8007C
F8007C
F8007C
F800FC
F800FC
FC01FC
7C01FC
7E07FC
3FFFFC
3FFF7C
0FFC7C
07F07C
ENDCHAR
STARTCHAR udieresis
ENCODING 252
SWIDTH 611 0
DWIDTH 29 0
BBX 22 33 4 0
BITMAP
0F8F80
0F8F80
0F8F80
0F8F80
0F8F80
000000
000000
000000
F8007C
F8007C
F8007C
F8007C
F8007C
F8007C
F8007C
F8007C
F8007C
F8007C
F8007C
F8007C
F8007C
F8007C
F8007C
F8007C
F800FC
F800FC
FC01FC
7C01FC
7E07FC
3FFFFC
3FFF7C
0FFC7C
07F07C
ENDCHAR
STARTCHAR yacute
ENCODING 253
SWIDTH 500 0
DWIDTH 24 0
BBX 23 45 1 -10
BITMAP
000F80
001F00
001E00
003C00
007800
007000
00E000
000000
000000
000000
F8003E
F8003C
7C007C
7C007C
7C0078
3E00F8
3E00F8
1E00F0
1F01F0
1F01F0
0F01E0
0F83E0
0F83E0
0783C0
07C7C0
07C780
03C780
03EF80
01EF00
01EF00
01FF00
00FE00
00FE00
00FE00
007C00
007C00
007800
00F800
00F800
01F000
03F000
7FE000
7FC000
7F8000
7E0000
ENDCHAR
STARTCHAR thorn
ENCODING 254
SWIDTH 611 0
DWIDTH 29 0
BBX 23 46 4 -10
BITMAP
F80000
F80000
F80000
F80000
F80000
F80000
F80000
F80000
F80000
F80000
F80000
F87F00
F9FFE0
FBFFF0
FFFFF8
FF81FC
FF00FC
FE007C
FC003E
FC003E
F8003E
F8003E
F8003E
F8003E
F8003E
F8003E
F8003E
FC003E
FC007E
FE007C
FE00FC
FF81F8
FFFFF8
FBFFF0
F9FFE0
F87F80
F80000
F80000
F80000
F80000
F80000
F80000
F80000
F80000
F80000
F80000
ENDCHAR
STARTCHAR ydieresis
ENCODING 255
SWIDTH 500 0
DWIDTH 24 0
BBX 23 43 1 -10
BITMAP
0F8F80
0F8F80
0F8F80
0F8F80
0F8F80
000000
000000
000000
F8003E
F8003C
7C007C
7C007C
7C0078
3E00F8
3E00F8
1E00F0
1F01F0
1F01F0
0F01E0
0F83E0
0F83E0
0783C0
07C7C0
07C780
03C780
03EF80
01EF00
01EF00
01FF00
00FE00
00FE00
00FE00
007C00
007C00
007800
00F800
00F800
01F000
03F000
7FE000
7FC000
7F8000
7E0000
ENDCHAR
STARTCHAR .notdef
ENCODING -1
SWIDTH 500 0
DWIDTH 24 0
BBX 20 25 2 0
BITMAP
FFFFF0
800010
800010
800010
800010
800010
800010
800010
800010
800010
800010
800010
800010
800010
800010
800010
800010
800010
800010
800010
800010
800010
800010
800010
FFFFF0
ENDCHAR
STARTCHAR quoteright
ENCODING -1
SWIDTH 278 0
DWIDTH 13 0
BBX 8 12 2 22
BITMAP
1F
1F
3F
3E
3E
3C
7C
7C
78
78
F8
F0
ENDCHAR
STARTCHAR quoteleft
ENCODING -1
SWIDTH 278 0
DWIDTH 13 0
BBX 8 12 3 22
BITMAP
0F
1F
1F
1E
3E
3E
3E
7C
7C
7C
FC
F8
ENDCHAR
STARTCHAR fraction.dup2
ENCODING -1
SWIDTH 167 0
DWIDTH 8 0
BBX 24 36 -8 -1
BITMAP
000007
00000F
00000E
00001C
00003C
000038
000078
000070
0000F0
0001E0
0001C0
0003C0
000380
000780
000700
000E00
001E00
001C00
003C00
003800
007800
00F000
00E000
01E000
01C000
03C000
038000
070000
0F0000
0E0000
1E0000
1C0000
3C0000
780000
700000
F00000
ENDCHAR
STARTCHAR florin
ENCODING -1
SWIDTH 556 0
DWIDTH 27 0
BBX 23 44 2 -10
BITMAP
0000FE
0001FE
0003FE
0007FE
000FC0
000F80
000F80
001F00
001F00
001F00
001F00
001F00
003E00
003E00
07FFF8
0FFFF8
0FFFF8
007C00
007C00
007C00
007C00
007C00
00F800
00F800
00F800
00F800
00F800
01F000
01F000
01F000
01F000
01F000
03E000
03E000
03E000
03E000
03E000
07C000
07C000
0FC000
FF8000
FF8000
FF0000
FC0000
ENDCHAR
STARTCHAR quotedblleft
ENCODING -1
SWIDTH 556 0
DWIDTH 27 0
BBX 17 12 5 22
BITMAP
0F0780
1F0F80
1F0F80
1E0F00
3E1F00
3E1F00
3E1F00
7C3E00
7C3E00
7C3E00
FC7E00
F87C00
ENDCHAR
STARTCHAR guilsinglleft
ENCODING -1
SWIDTH 278 0
DWIDTH 13 0
BBX 11 19 1 3
BITMAP
03E0
03C0
0780
0F80
0F00
1F00
3E00
7C00
7C00
F800
7C00
7C00
3E00
1F00
0F00
0F80
0780
03C0
03E0
ENDCHAR
STARTCHAR guilsinglright
ENCODING -1
SWIDTH 278 0
DWIDTH 13 0
BBX 11 19 1 3
BITMAP
F800
7800
3C00
3E00
1E00
1F00
0F80
07C0
07C0
03E0
07C0
07C0
0F80
1F00
1E00
3E00
3C00
7800
F800
ENDCHAR
STARTCHAR fi
ENCODING -1
SWIDTH 667 0
DWIDTH 32 0
BBX 27 36 1 0
BITMAP
001FC000
007FC3E0
00FFC3E0
01FFC3E0
01F003E0
03E003E0
03E00000
03E00000
03E00000
03E00000
03E00000
FFFF83E0
FFFF83E0
FFFF83E0
FFFF83E0
03E003E0
03E003E0
03E003E0
03E003E0
03E003E0
03E003E0
03E003E0
03E003E0
03E003E0
03E003E0
03E003E0
03E003E0
03E003E0
03E003E0
03E003E0
03E003E0
03E003E0
03E003E0
03E003E0
03E003E0
03E003E0
ENDCHAR
STARTCHAR fl
ENCODING -1
SWIDTH 667 0
DWIDTH 32 0
BBX 27 36 1 0
BITMAP
001FC3E0
007FC3E0
00FFC3E0
01FFC3E0
01F003E0
03E003E0
03E003E0
03E003E0
03E003E0
03E003E0
03E003E0
FFFF83E0
FFFF83E0
FFFF83E0
FFFF83E0
03E003E0
03E003E0
03E003E0
03E003E0
03E003E0
03E003E0
03E003E0
03E003E0
03E003E0
03E003E0
03E003E0
03E003E0
03E003E0
03E003E0
03E003E0
03E003E0
03E003E0
03E003E0
03E003E0
03E003E0
03E003E0
ENDCHAR
STARTCHAR endash
ENCODING -1
SWIDTH 500 0
DWIDTH 24 0
BBX 24 3 0 12
BITMAP
FFFFFF
FFFFFF
FFFFFF
ENDCHAR
STARTCHAR dagger
ENCODING -1
SWIDTH 556 0
DWIDTH 27 0
BBX 20 34 3 0
BITMAP
00F000
00F000
00F000
00F000
00F000
00F000
00F000
00F000
00F000
FFFFF0
FFFFF0
FFFFF0
00F000
00F000
00F000
00F000
00F000
00F000
00F000
00F000
00F000
00F000
00F000
00F000
00F000
00F000
00F000
00F000
00F000
00F000
00F000
00F000
00F000
00F000
ENDCHAR
STARTCHAR daggerdbl
ENCODING -1
SWIDTH 556 0
DWIDTH 27 0
BBX 20 34 3 0
BITMAP
00F000
00F000
00F000
00F000
00F000
00F000
00F000
00F000
FFFFF0
FFFFF0
FFFFF0
00F000
00F000
00F000
00F000
00F000
00F000
00F000
00F000
00F000
00F000
00F000
00F000
FFFFF0
FFFFF0
FFFFF0
00F000
00F000
00F000
00F000
00F000
00F000
00F000
00F000
ENDCHAR
STARTCHAR bullet
ENCODING -1
SWIDTH 500 0
DWIDTH 24 0
BBX 17 17 4 8
BITMAP
03E000
0FF800
3FFE00
3FFE00
7FFF00
7FFF00
FFFF80
FFFF80
FFFF80
FFFF80
FFFF80
7FFF00
7FFF00
3FFE00
3FFE00
0FF800
07E000
ENDCHAR
STARTCHAR quotesinglbase
ENCODING -1
SWIDTH 278 0
DWIDTH 13 0
BBX 8 12 3 -7
BITMAP
1F
1F
3E
3E
3E
3C
7C
7C
78
78
F8
F0
ENDCHAR
STARTCHAR quotedblbase
ENCODING -1
SWIDTH 556 0
DWIDTH 27 0
BBX 17 12 5 -7
BITMAP
1F0F80
1F0F80
3E1F80
3E1F00
3E1F00
3C1F00
7C3E00
7C3E00
783E00
783C00
F87C00
F07C00
ENDCHAR
STARTCHAR quotedblright
ENCODING -1
SWIDTH 556 0
DWIDTH 27 0
BBX 17 12 5 22
BITMAP
1F0F80
1F0F80
3E1F00
3E1F00
3E1F00
3C1E00
7C3E00
7C3E00
783C00
783C00
F87C00
F07800
ENDCHAR
STARTCHAR ellipsis
ENCODING -1
SWIDTH 1000 0
DWIDTH 48 0
BBX 37 5 5 0
BITMAP
F800F800F8
F800F800F8
F800F800F8
F800F800F8
F800F800F8
ENDCHAR
STARTCHAR perthousand
ENCODING -1
SWIDTH 1000 0
DWIDTH 48 0
BBX 47 36 0 -1
BITMAP
000000F00000
0FC000E00000
3FE001E00000
3FF001C00000
7CF803C00000
787803800000
F03C07800000
F03C0F000000
F03C0E000000
F03C1E000000
F03C1C000000
F03C3C000000
F03C38000000
F03C70000000
F07CF0000000
7878E0000000
7CF9E7E007E0
3FF1DFF01FF0
1FE3DFF81FF8
0FC3BE7C3E7C
00073C3C3C3C
000F781E781E
000E781E781E
001E781E781E
001C781E781E
003C781E781E
0078781E781E
0070781E781E
00F0781E781E
00E0783E783E
01E03C3C3C3C
01C03E7C3E7C
03801FF81FF8
07800FF00FF0
070007E007E0
0F0000000000
ENDCHAR
STARTCHAR circumflex
ENCODING -1
SWIDTH 278 0
DWIDTH 13 0
BBX 14 7 -1 28
BITMAP
0780
0FC0
1FE0
3CF0
3CF0
7878
F03C
ENDCHAR
STARTCHAR tilde
ENCODING -1
SWIDTH 278 0
DWIDTH 13 0
BBX 16 5 -1 29
BITMAP
3E03
7FC7
7FFE
E3FE
C07C
ENDCHAR
STARTCHAR breve
ENCODING -1
SWIDTH 278 0
DWIDTH 13 0
BBX 15 7 -1 28
BITMAP
C006
C006
600C
701C
3FF8
1FF0
0FC0
ENDCHAR
STARTCHAR dotaccent
ENCODING -1
SWIDTH 278 0
DWIDTH 13 0
BBX 5 5 4 28
BITMAP
F8
F8
F8
F8
F8
ENDCHAR
STARTCHAR ring
ENCODING -1
SWIDTH 278 0
DWIDTH 13 0
BBX 10 10 2 27
BITMAP
1E00
7F80
6180
C0C0
C0C0
C0C0
C0C0
6180
7F80
1E00
ENDCHAR
STARTCHAR hungarumlaut
ENCODING -1
SWIDTH 278 0
DWIDTH 13 0
BBX 18 7 -1 28
BITMAP
0F87C0
1F0F80
3E1F00
3C1E00
783C00
703800
E07000
ENDCHAR
STARTCHAR ogonek
ENCODING -1
SWIDTH 278 0
DWIDTH 13 0
BBX 9 10 3 -10
BITMAP
0700
1C00
3800
7000
F000
F000
F000
F180
7F00
3E00
ENDCHAR
STARTCHAR caron
ENCODING -1
SWIDTH 278 0
DWIDTH 13 0
BBX 14 7 0 28
BITMAP
F03C
7878
3CF0
3CF0
1FE0
0FC0
0780
ENDCHAR
STARTCHAR emdash
ENCODING -1
SWIDTH 1000 0
DWIDTH 48 0
BBX 48 3 0 12
BITMAP
FFFFFFFFFFFF
FFFFFFFFFFFF
FFFFFFFFFFFF
ENDCHAR
STARTCHAR OE
ENCODING -1
SWIDTH 944 0
DWIDTH 45 0
BBX 40 34 3 0
BITMAP
0007FFFFFE
003FFFFFFE
00FFFFFFFE
03FFFFFFFE
07FE07C000
0FE007C000
1FC007C000
3F0007C000
3E0007C000
7E0007C000
7C0007C000
7C0007C000
F80007C000
F80007C000
F80007FFFC
F80007FFFC
F80007FFFC
F80007FFFC
F80007C000
F80007C000
F80007C000
FC0007C000
7C0007C000
7C0007C000
7E0007C000
3F0007C000
1F8007C000
1FC007C000
0FF007C000
07FE07C000
03FFFFFFFF
00FFFFFFFF
003FFFFFFF
0007FFFFFF
ENDCHAR
STARTCHAR dotlessi
ENCODING -1
SWIDTH 278 0
DWIDTH 13 0
BBX 5 25 4 0
BITMAP
F8
F8
F8
F8
F8
F8
F8
F8
F8
F8
F8
F8
F8
F8
F8
F8
F8
F8
F8
F8
F8
F8
F8
F8
F8
ENDCHAR
STARTCHAR oe
ENCODING -1
SWIDTH 944 0
DWIDTH 45 0
BBX 42 25 2 0
BITMAP
007F800FE000
01FFE07FF800
07FFF8FFFE00
0FFFFDFFFE00
1F80FDF03F00
3F007FE01F80
3E003FC00F80
7E001F800780
7C001F8007C0
7C000F8007C0
7C000FFFFFC0
FC000FFFFFC0
F8000FFFFFC0
F8000F800000
7C000F800000
7C000F800000
7C001FC00000
7C001FC00000
3E003FE00000
3F007FF00100
1F80FDF80700
0FFFF9FFFF00
07FFF0FFFF00
03FFE03FFE00
007F000FF000
ENDCHAR
STARTCHAR trademark
ENCODING -1
SWIDTH 990 0
DWIDTH 48 0
BBX 42 20 3 14
BITMAP
FFFF0FC00FC0
FFFF0FE00FC0
FFFF0FE00FC0
03C00FF01FC0
03C00FF01FC0
03C00F703DC0
03C00F783DC0
03C00F7839C0
03C00F3879C0
03C00F3C79C0
03C00F3C71C0
03C00F1EF1C0
03C00F1EF1C0
03C00F1FE1C0
03C00F0FE1C0
03C00F0FE1C0
03C00F07C1C0
03C00F07C1C0
03C00F0781C0
03C00F0381C0
ENDCHAR
STARTCHAR Ydieresis
ENCODING -1
SWIDTH 667 0
DWIDTH 33 0
BBX 31 41 1 0
BITMAP
007C7C00
007C7C00
007C7C00
007C7C00
00000000
00000000
00000000
FC00007E
7C0000FC
3E0000F8
3F0001F8
1F0003F0
0F8003E0
0FC007E0
07C007C0
03E00F80
03F01F80
01F01F00
00F83E00
00FC7E00
007C7C00
007EFC00
003FF800
001FF000
001FF000
000FE000
0007C000
0007C000
0007C000
0007C000
0007C000
0007C000
0007C000
0007C000
0007C000
0007C000
0007C000
0007C000
0007C000
0007C000
0007C000
ENDCHAR
STARTCHAR Lslash
ENCODING -1
SWIDTH 500 0
DWIDTH 24 0
BBX 22 34 1 0
BITMAP
1F0000
1F0000
1F0000
1F0000
1F0000
1F0000
1F0000
1F0000
1F0000
1F0000
1F0000
1F0080
1F0380
1F0780
1F1F80
1F7E00
1FF800
1FF000
1FC000
3F0000
FF0000
FF0000
FF0000
9F0000
1F0000
1F0000
1F0000
1F0000
1F0000
1F0000
1FFFFC
1FFFFC
1FFFFC
1FFFFC
ENDCHAR
STARTCHAR lslash
ENCODING -1
SWIDTH 278 0
DWIDTH 13 0
BBX 11 36 1 0
BITMAP
1F00
1F00
1F00
1F00
1F00
1F00
1F00
1F00
1F00
1F00
1F20
1F20
1FE0
1FE0
1FC0
1F80
1F00
7F00
FF00
FF00
DF00
9F00
1F00
1F00
1F00
1F00
1F00
1F00
1F00
1F00
1F00
1F00
1F00
1F00
1F00
1F00
ENDCHAR
STARTCHAR minus
ENCODING -1
SWIDTH 600 0
DWIDTH 29 0
BBX 25 4 2 10
BITMAP
FFFFFF80
FFFFFF80
FFFFFF80
FFFFFF80
ENDCHAR
STARTCHAR Scaron
ENCODING -1
SWIDTH 500 0
DWIDTH 24 0
BBX 19 43 3 0
BITMAP
3C0F00
1E1E00
0F3C00
0F3C00
07F800
03F000
01E000
000000
000000
03FE00
0FFFC0
3FFF80
7FFF80
7F0780
FC0080
F80000
F80000
F80000
F80000
F80000
FC0000
FE0000
7F8000
3FE000
1FF800
0FFE00
03FF00
00FF80
003FC0
000FC0
0007E0
0003E0
0003E0
0003E0
0003E0
0003E0
0007E0
800FC0
F87FC0
FFFF80
FFFF00
FFFC00
1FE000
ENDCHAR
STARTCHAR scaron
ENCODING -1
SWIDTH 389 0
DWIDTH 19 0
BBX 16 35 1 0
BITMAP
3C0F
1E1E
0F3C
0F3C
07F8
03F0
01E0
0000
0000
0000
07F8
1FFE
3FFC
7FFC
7C04
7C00
F800
FC00
FC00
7F00
7FC0
3FF0
0FF8
07FE
00FE
007F
003F
001F
001F
001F
403E
7FFE
7FFC
7FF8
1FE0
ENDCHAR
STARTCHAR Euro
ENCODING -1
SWIDTH 556 0
DWIDTH 27 0
BBX 27 34 1 0
BITMAP
0000FF80
0007FFE0
001FFFE0
003FFFE0
00FF8060
00FC0000
01F80000
03F00000
03E00000
07E00000
07C00000
0FC00000
FFFFFF80
FFFFFF80
FFFFFF00
0F800000
0F800000
0F800000
0F800000
FFFFFE00
FFFFFE00
FFFFFE00
07C00000
07C00000
07E00000
03E00000
03F00000
01F80000
01FE0000
00FF80E0
007FFFE0
001FFFE0
0007FFE0
0000FF80
ENDCHAR
ENDFONT
